<?xml version="1.0" encoding="UTF-8"?>
<svg id="Layer_1" xmlns="http://www.w3.org/2000/svg" version="1.1" viewBox="0 0 1886.49 1886.49">
  <!-- Generator: Adobe Illustrator 30.4.0, SVG Export Plug-In . SVG Version: 2.1.3 Build 187)  -->
  <defs>
    <style>
      .st0 {
        fill: #333;
      }
    </style>
  </defs>
  <path class="st0" d="M1610.22,276.27C1432.06,98.11,1195.19,0,943.24,0S454.42,98.11,276.27,276.27C98.11,454.42,0,691.29,0,943.24s98.11,488.82,276.27,666.98c178.15,178.15,415.02,276.27,666.97,276.27s488.82-98.11,666.98-276.27c178.15-178.16,276.27-415.03,276.27-666.98s-98.11-488.82-276.27-666.97ZM982.4,1833.09c-491.45,0-889.85-398.4-889.85-889.85S490.95,53.39,982.4,53.39s889.85,398.4,889.85,889.85-398.4,889.85-889.85,889.85Z"/>
  <circle class="st0" cx="943.16" cy="943.59" r="178"/>
</svg>