<?xml version="1.0" encoding="UTF-8"?>
<svg id="Layer_1" xmlns="http://www.w3.org/2000/svg" version="1.1" viewBox="0 0 301.62 499.33">
  <!-- Generator: Adobe Illustrator 30.4.0, SVG Export Plug-In . SVG Version: 2.1.4 Build 226)  -->
  <defs>
    <style>
      .st0 {
        fill: gray;
      }

      .st1 {
        fill: #e6e6e6;
      }

      .st2 {
        fill: #ccc;
      }

      .st3 {
        fill: #9e9e9e;
      }
    </style>
  </defs>
  <polygon class="st3" points="301.62 210.03 234.96 187.05 174.86 114.93 150.08 0 301.62 210.03"/>
  <polygon class="st3" points="150.08 499.33 0 214 79.78 195.77 150.08 499.33"/>
  <path class="st0" d="M301.62,210.03l-151.54,289.29c3.2-86.22,39.95-196.34,84.88-312.28l66.66,22.98Z"/>
  <polygon class="st2" points="150.08 0 79.78 195.77 0 214 150.08 0"/>
  <polygon class="st1" points="174.86 114.93 79.78 195.77 150.08 0 174.86 114.93"/>
  <path class="st2" d="M234.96,187.05c-44.93,115.94-81.68,226.06-84.88,312.28L79.78,195.77l95.08-80.84,60.11,72.12Z"/>
</svg>