<?xml version="1.0" encoding="UTF-8"?>
<svg id="Layer_1" xmlns="http://www.w3.org/2000/svg" version="1.1" viewBox="0 0 497.38 483.36">
  <!-- Generator: Adobe Illustrator 30.4.0, SVG Export Plug-In . SVG Version: 2.1.3 Build 187)  -->
  <defs>
    <style>
      .st0 {
        fill: #c9a84c;
      }
    </style>
  </defs>
  <path class="st0" d="M224.14,482.01c-58.94-5.78-111.13-32.43-152.1-73.29l-26.91-31.32C.52,316.5-10.98,246.65,10.46,173.81c12.59-42.79,36.2-80.15,69.72-109.48C124.15,25.86,179.13,2.75,238.01.22c72.85-3.13,143.07,27.32,192.47,80.75,31.62,34.19,51.2,76.56,61.25,122.09,10.93,49.55,6.07,100.47-15.26,146.66-43.82,94.9-148.9,142.45-252.33,132.3ZM262.5,471.78c119.86-6.13,220.34-90.95,223-214.36.92-42.59-9.74-83.32-28.58-121.42-21.92-44.31-58.44-78.95-101.52-102.28C291.15-1.08,215.5-2.69,149.53,28.64c-26.51,12.59-50.49,28.81-71.1,49.66C22.22,135.15-1.11,215.75,18.27,294.12c9.8,39.63,31.89,74.72,60.28,103.86,48,49.26,114.17,77.37,183.94,73.81Z"/>
  <path class="st0" d="M327.09,199.9l42.69,42.37c2.29,2.27,6.46,4.6,9.87,5.39,1.99-2.51,3.74-7.13,4.39-10.53,8.22-43.19-5.63-85.53-34.12-118.35-32.3-37.2-80.85-51.77-128.82-43.2-73.04,13.04-122.07,82.95-105.7,156.58,7.97,35.87,30.01,67.08,60.69,87.07,13.7,8.92,28.08,13.69,42.67,20.18-38.21-1.23-71.19-21.39-92.59-52.62-29.62-43.21-32.49-101.64-5.97-147.45,18.21-31.44,47.55-54.72,81.02-66.91,52.2-19.01,107.46-6.14,147.35,31.65,52.65,49.89,65.89,132.86,20.5,190.91-14.32,18.31-39.04,36.51-62.48,40.3,29.08-15.61,52.67-38.16,67.25-67.9,1.71-3.48,1.66-7.86-1.14-10.17l-12.09-9.96c1.72,6.97.5,12.79-4.98,17.07l-30.82-23.02,1.83,15.6-29.5-20.9c11.23-10.93,19.46-21.18,29.98-36.12Z"/>
  <path class="st0" d="M333.01,299.97c-9.69,17.8-34.79,32.28-54.55,33.78l-32.74-1.11c18.66-4.18,65.23-19.87,52.34-30.69-4.96-4.16-14.11-3.1-20.67-3.48l-35.26-2c-4.83-.27-9.67-2.58-15.03-5.53l42.81-4.61-40.05-8.69c-13.83-3-27.01-6.31-39.09-13.75l28.71,3.66,77.86,8.18c20.21,2.12,39.05.49,59.55-.99l-9.65,4.4,2.79,3.01-22.94,3.77c-6.61,1.09-12.98,4.94-20.18,5.08-5.2.1-10.29.53-14.57,3.89l40.67,5.07Z"/>
  <path class="st0" d="M238.19,158.31c-5.49,11.81-17.61,18.2-29.87,19.33s-26.21-3.87-33.7-14.78c-10.76-15.66-11.34-35.84.84-50.35,10.44-12.44,25.89-20.36,42.5-19.79-11.88,6.62-20.91,14.58-22.55,27.39-1.5,11.73,3.3,22.25,10.54,29.51,8.32,8.35,18.83,10.32,32.25,8.68Z"/>
  <path class="st0" d="M352.78,316.77c3.89-3.63,9.12.71,10.35,4.37s-.09,8.36-4.34,10.53c-55.11,28.14-124.98,29.08-183.75,11.74l-35.14-13.6c-3.48-1.35-5.5-5.34-5.28-8.04.27-3.29,5.74-8.54,8.45-6.23,7.33,6.27,14.02,12.04,23.19,15.58,20.47,7.91,41.66,10.74,63.89,12.42,32.88,2.48,65.11.18,96.15-10.19,10.36-3.46,18.34-8.97,26.48-16.58Z"/>
  <path class="st0" d="M358.17,352.08c-.61-2.62,6.88-5.67,8.88-4.29,3.96,4.55,8.71,11.03,9.81,17.55,2.56,15.26-45.1,30.26-65.74,33.88-53.46,9.38-126.11,8.18-173.48-19.55-4.34-2.54-10.95-7.88-11.09-13.13-.2-7.8,4.42-13.98,8.18-20.36,3.11,1.13,6.76,3.15,8.08,4.91l-3.55,15.67c-1.38,6.1,2.57,11.93,8.18,14.08,53.36,20.47,125.8,19.83,181.62,6.85,17.33-4.03,35.48-8.49,32.03-23.18l-2.92-12.42Z"/>
  <path class="st0" d="M263.25,209.32c-3.15-3.34-6.27-4.58-10.44-2.89l-37.87,15.31c19.42-14.93,37.81-28.48,55.2-45.08l7.01-8.06,31.49,38.68c-6.21,9.85-14.56,18.23-23.37,25.38l-22.02-23.33Z"/>
  <path class="st0" d="M170.16,270.47l-24.71,1.22c-10.99-14.76-19.26-31.46-21.52-49.96-1.75-11.94-1.91-23.3,2.15-34.05.8,25.03,19.9,36.36,27.21,58.61,4.48,8.95,10.14,16.37,16.88,24.18Z"/>
  <path class="st0" d="M310.06,170.53l-9.93-17.06-14.35,3.03,5.59-13.21-50.05-25.27c19.06.98,36.65,7.22,56.13,14.94l7.19-18.65,7.34,17.99,14.52.13-6.63,8.62,11.97,12.15-17.4-.65-4.38,17.97Z"/>
  <path class="st0" d="M236.67,378.11c-3.31-2.84-5.02-8.28-6.71-12.41l-16.9-2.44-2.18,16.17c-5.45-4.03-5.05-12.6-3.2-18.8l56.19,1.83,28.62-.48c-7.61,3.07-11.73,4.5-15.5,9.88-9.37,13.38-27.2,17.48-40.32,6.25Z"/>
  <path class="st0" d="M388.41,315.85c7.38-3.84,14.58-6.34,20.34-12.01l31.9-31.38c8.76-10.98,14.85-22.89,21.14-36.32-1.6,29.94-14.71,55.12-40.28,71.33-10.49,4.76-21.01,7.96-33.1,8.39Z"/>
  <path class="st0" d="M247.18,414.45l-46.03-6.14c-4.63-.62-9.39-2.45-12.42-6.07,40.77,3.75,79.1,4.09,118.69-1.48l3.95,1.16c.93.27,1.63,2.91.81,3.45l-3.89,2.55c-20.13,4.34-40.29,5.91-61.11,6.53Z"/>
  <path class="st0" d="M385.4,301.19c8.57-7.15,16.51-14.37,23.68-23.39l11.05-15.47c13.65-19.12,21.91-40.22,25.98-63.39,4.47,30-6.47,58.94-25.98,80.56-10.55,8.83-20.99,16.51-34.73,21.68Z"/>
  <path class="st0" d="M107.03,324.39c-11.03-.6-20.36-3.11-30.32-6.65-25.2-12.82-41.91-38.53-43.83-66.52,6.91,15.16,15.07,27.31,26.88,37.76,14.06,14.63,29.23,26.64,47.27,35.41Z"/>
  <path class="st0" d="M200.08,226.93l36.88,33.57c-14.51-.64-28.54-7.3-39.66-17.98l-23.9-28.58c2.89-.25,8.07-.48,9.79.76l16.89,12.24Z"/>
  <path class="st0" d="M109.43,308.69c-16.65-5.28-30.34-15.03-41.4-27.95-12.69-17.85-22.05-38.05-20.68-61.35,6.62,18.51,13.98,35.28,25.83,50.69,10.13,14.95,21.81,27.21,36.25,38.61Z"/>
  <path class="st0" d="M187.46,294.3c-4.48,6.22-16.36,3.83-23.4-3.22l-13.4-13.41,14.07-2.79,8.58-1.43,14.68,12.16c1.57,1.3.63,7.06-.53,8.68Z"/>
  <path class="st0" d="M400.13,143.03l-6.21-13.41c-1.49-3.21-8.8-5.83-11.82-7.6,3.95-2.98,10.59-5.55,12.5-9.39l5.91-11.91c2.11,10.41,7.33,17.23,17.1,21.42-3.38,1.78-10.63,4.15-12.01,7.51l-5.47,13.38Z"/>
  <path class="st0" d="M120.51,108.74l-6.53,13.2c-4.94-11.79-6.04-14.91-18.94-20.54,10.57-3.44,15.2-8.93,18.6-20.31,2.76,10.63,8.19,15.7,18.09,20.01-3.48,2.28-9.84,4.85-11.22,7.63Z"/>
  <path class="st0" d="M424.76,332.31c-8.83,3.82-19.92-.25-27.96.12l25.94-9.02c9.99-6.8,20.13-12.12,32.57-15.61-8.71,9.56-18.31,19.2-30.55,24.5Z"/>
  <path class="st0" d="M97.48,333.26c-7.98.47-17.81,2.91-25.09-.35-12.57-5.64-22.13-15.27-31.73-25.23,19.96,5.55,35.63,19.06,56.82,25.58Z"/>
  <path class="st0" d="M285.3,264.78c-15.26-2.42-27.21-10.71-39.4-19.84l11.15,2.42-13.46-12.31,56.61,28.69-26.24-7.3,11.33,8.34Z"/>
  <path class="st0" d="M282.74,303.18c-21.77,6.26-44.55,8.61-69.01,3.77,14-4.67,28.42-5.29,43.31-4.73l25.7.96Z"/>
  <path class="st0" d="M360.34,168.12c8.22,12.32,12.83,25.94,9.57,41.07-4.69-21.67-15.91-38.63-31.26-54.88,8.35,3.16,14.67,8.06,21.68,13.81Z"/>
  <path class="st0" d="M423.55,175.69c-4.22-6.07-8.58-11.1-13.85-15.66,6.1-1.61,11.12-5.19,14.01-11.15,3.07,5.44,6.95,10.49,12.37,13.04-5.25,3.23-9.4,8.07-12.52,13.76Z"/>
  <path class="st0" d="M82.77,159.37c-3.63-4.16-8.66-8.63-14.48-12.36,5.89-2.63,10.4-7.06,14.03-13.02,3.42,5.8,7.41,10.65,13.36,12.46-4.41,3.24-8.26,6.86-12.91,12.92Z"/>
  <path class="st0" d="M343.02,404.76c-4.78,5.34-14.84,6.32-17.01-.84-1.46-4.81,4.39-9.53,8.52-10.94,3.24-1.11,7.25-.6,9.16,1.63,2.22,2.59,2.19,6.95-.67,10.15Z"/>
  <path class="st0" d="M170.5,404.56c2.12,1.24,2.14,7.12.75,8.81-1.73,2.1-6.16,3.88-9.37,3.06s-6.56-3.38-7.73-5.41c-1.51-2.63-.46-9.01,2.99-9.79,3.85-.86,9.28.95,13.36,3.33Z"/>
  <path class="st0" d="M314.01,373.15c-.69,1.9-5.06,4.62-6.05,3.16-3.5-5.17-3.84-11.8-2.48-17.86l15.22-3.68-6.7,18.38Z"/>
  <path class="st0" d="M381.59,386.52c-5.14,5.02-12.13,5.19-17.99,3.06,5.51-5.73,9.66-10.68,14.3-17.6,1.94-.43,5.51,3.05,6.34,5.83.65,2.15-.46,6.56-2.66,8.71Z"/>
  <path class="st0" d="M135.93,388.49c-4.79,3.42-12.58,2.71-17.67-1.54-1.77-1.48-3.4-5.85-3.13-7.95.34-2.65,3.92-6.54,6.07-6.09l14.73,15.59Z"/>
  <path class="st0" d="M420.44,352c-10.83,3.48-22.07-1.57-32.31-7.28,12.77-2.33,25.23-.9,32.31,7.28Z"/>
  <path class="st0" d="M86.03,353.29c-2.36.83-7.7-.49-10.77-1.21,8.66-8.6,20.75-8.49,33.38-6.71l-22.61,7.92Z"/>
  <path class="st0" d="M350.7,82c-1.81-2.72-5.4-7.06-8.44-9.89,2.38-1.74,6.12-6.12,8.41-9.94,2.09,3.09,6.08,7.39,9.6,9.89-2.87,1.78-6.4,5.46-9.57,9.94Z"/>
  <path class="st0" d="M290.93,301.31c-8.4,5.66-26.38,9.9-37.76,8.66,11.64-5.9,23.81-8.47,37.76-8.66Z"/>
  <ellipse class="st0" cx="153.97" cy="178.52" rx="6.02" ry="6.06"/>
  <polygon class="st0" points="190.59 357.8 184.85 374.36 178.84 354.34 190.59 357.8"/>
  <ellipse class="st0" cx="166.61" cy="219.11" rx="5.32" ry="5.35"/>
  <ellipse class="st0" cx="328.6" cy="181.97" rx="5.24" ry="5.27"/>
  <path class="st0" d="M291.84,366.44c1.23,0,3.61,12.42-2.94,13.14-2.18-3.89-2.32-8.59-1.88-13.14h4.82Z"/>
  <path class="st0" d="M417.04,220.23l-5.97-4.36,4.88-10.24c1.8,4.61,3.37,8.02,5.17,10.37l-4.08,4.22Z"/>
  <path class="st0" d="M336.62,285.92c-8.72,2.74-17.09,2.41-25.35,1.24,8.72-2.74,17.09-2.41,25.35-1.24Z"/>
  <ellipse class="st0" cx="81.49" cy="221.26" rx="3.97" ry="4"/>
  <ellipse class="st0" cx="62.02" cy="172.19" rx="3.67" ry="3.69"/>
  <ellipse class="st0" cx="254.61" cy="90.41" rx="3.93" ry="3.95"/>
</svg>