<?xml version="1.0" encoding="UTF-8"?>
<svg id="Layer_1" xmlns="http://www.w3.org/2000/svg" version="1.1" viewBox="0 0 497.38 483.36">
  <!-- Generator: Adobe Illustrator 30.4.0, SVG Export Plug-In . SVG Version: 2.1.3 Build 187)  -->
  <defs>
    <style>
      .st0 {
        fill: #c9a84c;
      }
    </style>
  </defs>
  <path class="st0" d="M169.45,470.37c-62.65-20.87-117.88-64.56-145.57-123.87C6.44,309.13-2.03,268.5.41,226.84c3.64-61.92,32.68-120.53,79.16-161.38C123.74,26.65,178.07,3.14,237.11.27c48.21-2.34,94.07,10.65,135.34,34.28,50.83,29.11,89.1,74.07,109.72,128.78,27.83,73.86,17.33,158.08-30.12,221.8-26.38,35.43-63.04,60.71-103.63,77.85-56.89,24.02-119.44,27.2-178.96,7.38ZM483.09,240.42c0-128.63-104.97-232.9-234.45-232.9S14.18,111.79,14.18,240.42s104.97,232.9,234.45,232.9,234.45-104.27,234.45-232.9Z"/>
  <path class="st0" d="M299.7,432.32c-15.77,2.93-30.87,8.46-46.55,8.23-14.57-.22-28.59-4.59-42.6-7.49l-38.61-7.99c-10.68-2.21-20.4-5.99-30.75-11.71l45.51,4.61c-3.84-1.75-7.78-3.3-11.4-3.96l-37-6.72-46.95-7.57c-3.25-.52-7.19-3.76-8.66-6.07-1.67-2.64-1.29-8.23-.18-11.33,5.13-14.36,16.45-45.85,24.36-48.56,1.54-.53,4.51.54,7.64,1.69l6-10.59c2.28-4.02,6.83-7.61,11.7-7.51l47.05.97c-38.63-43.93-43.27-85.1-55.9-138.19l-10.92-45.91c15.4,5.97,28.37,11.3,43.81,9.61,31.6-3.45,60.18-18.58,83.18-39.38,3.12,6.35,6.4,13.27,10.52,18.83,21.56,13.92,45.2,23.77,70.82,27.21,21.41,2.88,40.48-2.16,61.67-8.46l-8.06,48.23-9.59,50.09c-5.62,29.33-18.71,54.23-38.04,77.85l45.9-1.33c7.04-.2,12.14,2.44,15.48,8.38l5.08,9.05c4.88-2.6,9.33-2.07,11.81,1.86,4.93,7.84,10.84,15.8,13.47,24.68l8.18,27.6c1.33,4.5-3.89,9.92-8.29,10.74l-26.8,5.04c-24.93,4.69-49.62,6.55-73.78,13.86l48.55-4.37c-14.13,8.29-28.45,11.47-43.79,14.33l-22.88,4.26ZM199.62,264.25c-2.28-2.98-4.77-2.97-10.35-1.59l10.01-15.51c3,9.49,7.53,14.74,15.86,16.41,14,2.81,27.31,3.51,42.05,2.02,1.02-3.99,1.13-8.73.17-11.88l-16.56-4.86,23.22-3.2-8.63-53.71c-3.86-24.05-8.5-51.32-18.05-73.62l-18.48,12.62c-27.01,18.44-61.78,29.65-93.16,17.84l13.77,48.71c5.63,19.93,10.94,39.13,18.11,58.55,8.15,22.08,21.86,40.31,37.98,57.22,12.96,13.59,27.64,24.19,44.61,32.28l18.51,8.82c2.06-17.81,2.51-34.32.71-51.49-28.41-.3-43.63-17.57-59.77-38.62ZM344.66,215.72c.48-14.43-8.89-25.13-20.17-30.24-12.15-5.5-25.81-3.2-36.14,5.39-6.25,5.19-10.22,12.49-12.36,21.3,17.49-13.97,48.84-10.56,68.68,3.55ZM319.48,283.76c4.13-13.36-4.59-24.17-17.5-26.9-14.45-3.05-31.17,10.78-31.66,26.89,17.66-13.27,32.29-13.86,49.16,0ZM308.66,294.15c-9.62-5.14-23.05-5.03-30.15,4.04,10.49-4.47,18.78-5.79,30.15-4.04ZM271.37,342.21c22.13-4.85,39.31-20.63,49.69-38.78-14.68,16.42-31.12,27.76-49.69,38.78ZM207.36,369.35c15.16,5.22,27.15,12.96,36.72,25l4.35.37c3.07.26-1.92-17.6-21.25-29.85-26.92-17.06-57.15-24.28-88.98-27.5,17.31-4.75,32.92.28,50.15,1.55-6.75-3.65-14.22-6.32-22.07-7.23l-30.35-3.53c-2.19-.26-7.03,2.28-7.78,4.21-4.94,12.83-8.45,24.32-10.62,38.01,9.21,1.95,16.63,2.52,25.31,2.88l31.93,1.31c22.37.92,41.48,11.08,60.34,24.76-3.79-18.37-41.82-28.77-60.93-31.63l-37.92-5.67c24.92-4.94,47.88.6,71.11,7.32ZM371.22,361.53c-23.98,4.99-46.67,6.43-68.86,14.69-12.05,4.48-25.9,9.48-30.58,22.25,11.96-6.97,21.02-13.6,32.71-17.46,15.76-5.21,31.61-6.62,48.3-7.81l38.15-2.73c-2.72-15.49-6.74-27.64-12.23-41.75-19.73-.97-39.35.9-58.13,8.77,14.79-.4,29.11-5.94,43.56-.12-25.77,1.74-47.96,7.67-69.42,19.2-16.53,8.87-33.56,18.8-37.87,38.25,4-.42,6.98-1.76,9.28-4.37,7.53-8.55,16.39-14.98,27.42-19.1,24.48-9.14,50.91-13.26,77.68-9.8ZM380.47,383.2c2.25,2.61,5.51,4.5,7.74,4.26l24.32-2.61c-4.1-15.53-6.56-30.38-15.66-43.58l6.03,29.79c.7,3.46-3.61,7.83-6.53,8.5l-15.9,3.63ZM126.24,382.9c-10.07-1.84-14.77-2.77-22.35-6.75l5.56-32.23c-6.79,13.27-9.82,25.62-14.69,40.83l24.42,2.91c3.15.38,7.85-2.91,7.06-4.76ZM280.56,408.95c25.57-9.9,49.07-17.75,75.56-25.27-17.7-.25-35.69,2.22-51.82,8.95-9.04,3.77-18.24,7.34-23.74,16.32ZM226.42,409.25c-1.48-3.87-3.31-5.91-5.82-7.47-19.73-12.17-42.29-19.33-66.09-17.47,16.97,4.93,33.78,9.48,50.21,16.14l21.7,8.79ZM273.47,415.67c-9.44-13.1-30.9-12.72-38.38-.07,9.05,10.88,28.86,10.31,38.38.07Z"/>
  <path class="st0" d="M146.2,79.05c1.65,25.38,25.39,39.41,52.69,36.24-11.33,10.76-25.46,17.62-41.31,17.22-25.05-.63-43.1-20.79-38.91-45.81,3.28-19.6,21.09-34.72,41.99-35.49-8.31,7.91-15.19,16.56-14.46,27.83Z"/>
  <path class="st0" d="M351.64,306.31l30.98-16.58c43.47-23.27,63.2-46.28,70.71-96.64,11.71,43.98-8.32,80.67-46.88,100.43-16.97,8.4-34,15.85-54.8,12.79Z"/>
  <path class="st0" d="M152.75,307.32c-20.17,2.6-38.42-3.75-55.8-12.21-42.05-20.47-60.25-56.35-50.09-101.94,4.6,33.77,18.79,63.28,46.33,81.85,19,12.81,38.99,22.29,59.56,32.31Z"/>
  <path class="st0" d="M399.04,125.31c-6.28,1.44-15.08,2.3-19.73,6.55l-9.81,8.96c-3.88-13.55-11.66-23.39-25.08-29.08l16.41-7.2,6.46-22.31,10.81,16.3,20.25-.64-8.91,13.94c3.05,5.53,6.07,9.45,9.6,13.48Z"/>
  <path class="st0" d="M282.8,62.91c-23.82,5.56-27.73,13.84-33.48,36.81-3.54-8.21-4.87-17.67-10.32-24.82s-14.88-8.4-23.65-11.79c7.29-3.07,16.51-4.36,22.06-9.98,5.88-5.95,7.65-14.73,10.98-23.13l6.44,14.76c1.69,3.87,6,10.35,10.06,11.79l17.89,6.34Z"/>
  <path class="st0" d="M86.26,304.86l15.74,9.85c-32.78,12.74-64.17-25.57-65.72-59.27,6.09,11.64,12.42,21.86,22,30.52,8.37,7.57,17.06,14.2,27.97,18.9Z"/>
  <path class="st0" d="M398.62,313.79c30.13-15.67,50.55-26.96,65.66-58.4-1.03,23.84-14.77,44.4-33.71,56.84-10.05,3.77-20.1,5.52-31.95,1.56Z"/>
  <path class="st0" d="M422.43,173.49c-3.35,1.94-4.83,9.9-6.58,14.1-4.49-13.54-6.61-14.97-20.04-20.8,11.1-3.12,17.12-8.55,19.55-19.74l7.62,14.38c1.29,2.43,7.71,4.08,10.92,5.43l-11.46,6.62Z"/>
  <path class="st0" d="M307.6,109.56c-3.18-11.15-7.49-16.73-19.83-19.41,11.01-3.83,17.08-8.27,19.62-20.46,3.9,11.48,8.41,17.51,19.76,19.76-11.6,2.96-15.99,8.13-19.56,20.11Z"/>
  <path class="st0" d="M80.96,153.68c-3.35-.09-8.53-5.21-10.56-7.53l-8.5-9.7,14.63-1.7c4.88-.57,9.98,1.65,12.83,5.35l10.89,14.09-19.29-.5Z"/>
  <path class="st0" d="M87.47,336.9l.39,5.22c.08,1.02-3.61,1.25-4.72.66l-20.43-10.86c-10.56-5.62-18.8-14.34-22.17-26.02,7.51,7.82,15.4,13.6,25.64,17.09,8.27,2.81,15.03,7.25,21.29,13.91Z"/>
  <path class="st0" d="M424.89,339.14c-2.92,1.69-7.78,2.23-9.24-.05,4.87-16.8,28.6-16.17,44.98-32.92-2.85,6.94-6.55,12.56-10.92,18.57l-24.82,14.4Z"/>
  <path class="st0" d="M113.69,180.39c-17.46,3.14-24.02,2.56-39.43-6.12l11.26-4.34c5.93-2.29,12.97-1.8,18.04,2.29l10.13,8.17Z"/>
  <path class="st0" d="M106.85,272.1c-19.75-11.44-33.24-33.25-30.74-56.28,6.73,21.46,16.61,38.45,30.74,56.28Z"/>
  <path class="st0" d="M423.86,214.74c4.18,21.37-9.53,44.28-28.85,56.14,14.03-17.07,23.44-34.37,28.85-56.14Z"/>
  <path class="st0" d="M102.45,131.05c-6.97-2.05-12.3-5.86-14.57-10.26-2.97-5.76-2.19-12.85-.59-17.93,9.05,8.25,13.61,17.5,15.16,28.19Z"/>
  <path class="st0" d="M397.83,205.87c-2.72-2.38-6.9-5.49-10.08-7.1l10.74-8.27,8.99,6.89-9.65,8.49Z"/>
  <path class="st0" d="M339.8,75.24l-8.01-7.27c2.79-.3,6.19-3.7,6.82-6.95l8.45,7.33-7.25,6.9Z"/>
  <path class="st0" d="M101.74,212.24l-7.52-6.99,8.27-7.05c.97,3.08,3.85,6.28,6.78,7.09l-7.53,6.95Z"/>
  <polygon class="st0" points="202.63 95.13 196.39 87.93 202.84 81.84 209.34 88.23 202.63 95.13"/>
  <polygon class="st0" points="111.36 241.16 105.58 235.72 111.18 230.2 118.56 235.5 111.36 241.16"/>
  <path class="st0" d="M280.56,408.95c5.49-8.98,14.7-12.55,23.74-16.32,16.13-6.73,34.12-9.2,51.82-8.95-26.48,7.51-49.99,15.37-75.56,25.27Z"/>
  <path class="st0" d="M174.85,217.33l-13.17,7.71c-1.05-14.76,5.79-30.53,18.82-37.03,19.65-9.8,48.23,3.5,51.59,26.9-19.26-8.12-39.24-8.14-57.25,2.41Z"/>
  <path class="st0" d="M229.23,185.61c-17.97-12.02-39.65-12.08-58.95-1.23,15.27-16.94,45.06-18.09,58.95,1.23Z"/>
  <path class="st0" d="M197.53,355.08l-43.28-6-11.53-1.52,24.03-.36c11.07-.16,21.32,2.72,30.77,7.87Z"/>
  <path class="st0" d="M364.93,347.77c-22.21,1.55-42.34,4.72-64.4,8.55,20.12-9.46,42.93-12.05,64.4-8.55Z"/>
</svg>