<?xml version="1.0" encoding="UTF-8"?>
<svg id="Layer_1" xmlns="http://www.w3.org/2000/svg" version="1.1" viewBox="0 0 497.38 483.36">
  <!-- Generator: Adobe Illustrator 30.4.0, SVG Export Plug-In . SVG Version: 2.1.3 Build 187)  -->
  <defs>
    <style>
      .st0 {
        fill: #c9a84c;
      }
    </style>
  </defs>
  <path class="st0" d="M466.57,363.45c-41.63,72.75-127.33,117.67-210.46,119.82-64.45,1.67-127.53-21.91-175.75-63.97C41.11,385.07,15.94,340.11,5.16,289.49S.42,188.97,22.1,142.84c11.06-23.52,24.44-44.37,42.57-63.23C100.41,42.44,145.95,17.04,196.35,5.56c87.38-19.91,179.35,15.2,238.56,80.57,68.91,76.08,82.81,187.9,31.65,277.32ZM266.79,470.81c63.98-4.05,132.03-39.11,171.41-88.03,69.57-86.42,60.22-209.09-12.58-291.27-31.43-35.48-72.1-59.51-117.24-73.07-41.72-12.53-84.4-12.37-126.03.8-36.27,11.47-69.37,29.66-97.96,55.38C41.74,113,15.06,168.05,11.84,225.25c-4.17,73.92,27.8,148.58,86.25,193.26,48.03,36.71,107.13,56.2,168.7,52.3Z"/>
  <path class="st0" d="M309.24,316.35c17.67-20.77-46.03-37.89-97.28-23.77-3.28.9-9.35,6.16-6.52,9.18,7.12,7.6,19.5,8.27,29.75,5.65l-12.99-8.46c17.43-5.62,50.96-.59,50.93,10.51-.04,13.21-60.57,19.18-87.92-.28-2.48-1.76-5.06-5.56-5.35-7.87-1.08-8.56,12.6-16.21,24.54-18.79,39.58-8.54,81.26-8.64,120.05,3.56,10.77,3.39,20.05,9.09,27.61,17.33,9.6,10.45,9.49,26.01-.85,36.46-9.59,9.69-21.83,16.6-35.61,21.1-51.69,16.91-106.59,22.78-160.8,16.91-34.03-3.68-82.57-19.58-100.08-49.75,61.29,41.3,170,40.76,238.53,20.94,22.67-6.56,55.4-23.74,41.77-43.14,5.54,24.47-27.05,36.3-50.52,42.23-26.16,6.61-51.97,7.95-79.16,7.81-39.55-.21-77.65-5.21-114.83-18.27-18.99-6.67-36.4-15.9-49.92-30.5-6.58-7.11-5.19-18.09,1.8-23.99,8.96-7.54,19.03-13.36,31.38-14.55-12.42,9.07-25.87,20.69-17.65,32.09,5.03,6.97,11.56,12.54,19.26,16.4,16.74,8.39,33.51,15.72,52.12,19.27-21.79-8.9-45.58-17.03-60.23-36.35-12.21-16.1,15-27.01,31.34-36.19l-19.38,3.44c-3.92.7-7.8.02-11.23-2.16l-38.98-24.72c15.87-8.25,30.55-14.66,46.71-20.29.81,1.78,1.7,5.07,1.73,6.52l-24.36,11.69c14.27.04,21.15-13.11,30.48-3.42,6.04,6.27,11.09,13.42,20.97,15.52-3.62-4.84-8.32-8.89-12.76-12.92-8.66-7.86-12.68-17.3-14.62-28.94l30.9-9.93-7.98-5.17-2.31-15.64c-1.13,3.09-4.42,5.43-7.37,4.84-16.67-3.35-32.27-6.91-48.4-12.24,16.88-3.85,33.68-1.55,49.54,1.06,1.63.27,4.27,2.85,5.94,4.29l-2.57-30.72c-11.13-3.75-20.47-9.23-30.29-15.56,10.73-1.39,18.88,5.94,28.55,5.97l66.68.22,34.38-33.39,24.87-25.39,24.15-24.65c.74-.76,2.97-2.06,3.93-2.09,1.2-.04,3.54,1.26,4.59,2.28l39.55,38.41,45.57,44.81,54.89-.02c2.95,0,5.85.86,7.91,2.34,8.59-3.96,17.66-7.81,28.26-8.97-8.69,7.52-18.52,12.15-28.09,15.67l-12.26,38.62c6.76,13.04,18.85,3.02,33.99,8.62l-23.55,4.9c2.6,3.52,5.73,5.69,9.52,7.46l8.59,4-9.97-1.25c-.96-.12-1.57,2.83-1.13,3.64,22.51,7.62,42.82,17.33,62.54,29.99l-18.16,9.66-25.68,19.41-31.66-12.77-6.93,6.48c21.03,2,42.7,9.57,59.55,23.54,11.38,9.43,14.78,23.3,7.46,36.27-7.37,13.05-20.62,22.32-35.82,26.56,9.44-9.72,18.01-20.76,16.41-34.61-2.77-23.92-41.22-39.82-66.19-42.07l-14.19,1c-4.86.34-8.51-1.12-12.37-.57,28.69,4.94,71.53,19.3,74.36,47.89,2.11,21.3-13.09,34.98-34.72,41.9l3.62-6.27c-8.39,7.09-16.4,12.91-26.4,17.35l13.01.52c-7.81,5.05-14.84,8.89-23.5,11.28l-59.03,16.3c-50.75,14.02-115.87,10.83-160.56-18.62,25.52,5.53,48.92,11.42,74.71,10.35,46.37-1.92,91.25-10.48,135.36-24.12,25.72-7.95,57.72-23.1,50.15-50.2-2.87-10.26-9.48-18.18-18.38-24.05-36.86-24.32-104.82-26.94-149.43-22.3-20.63,2.15-63.46,11.98-61.1,27.5,1.99,13.11,39.29,22.92,58.07,26.86-27.67,3.27-101.09-12.21-111.58-33.4-2.25-4.54,1.41-9.88,4.22-13.55l-10.36.96,1.49-9.04c-6.38,3.69-11.7,7.87-13.25,14.95-2.88,13.15,23.1,29.14,37.34,33.34l37.67,11.11c39.8,7.92,95.34,10.1,132.16-5.27,5.78-2.41,11.55-6.31,15.35-10.78ZM298.24,113.27l-38.52-38.32-12.03-9.97,1.53,50.41,49.02-2.12ZM201.31,114.49c12.81-12.59,26.99-24.61,37.54-40.88l-27.55,27.17c-3.92,3.87-8.23,7.21-9.99,13.71ZM180.91,262.41c40.39-1,76.56-1.74,114.29,2.48.47-14.26,3.21-27.66,7.56-41.05-10.69,6.43-20.21,11.45-31.32,13.47l-40.94-1.4,20.13-16.66,22.03-18.88c9.5-8.14,16.37-18.55,19.15-30.92,3.72-16.56-3.96-32.85-20-39.42-26.23-10.75-63.61-2.42-71.39,25.68-3.99,14.42.63,29.27,10.21,39.47,6.04-9.39,13.15-15.87,22.52-20.13-7.61-8.76-12.55-17.47-6.57-26.48,1.74-2.63,6.71-5.45,10.8-5.71,12.73-.8,22.03,9.43,21.84,22.23-.14,9.02-3.47,18.46-9.31,25.92-15.08,19.23-32.12,36.01-49.79,52.97l-19.19,18.42ZM201.1,135.64l-1.6-3.25-22.01-.55c-1.43-.04-4.15,2.29-4.29,3.38l27.9.42ZM320.71,133.4l-24.29.11,6.76,1.16c5.64.97,12,3.47,17.53-1.27ZM330.54,262.57c17.1,6.23,36.47,3.31,50.29-8.31,12.23-10.29,16.8-27.19,12.77-42.38-4.39-16.59-19.14-27.54-36.2-27.7l-22.13,2.27,3.61-20.35c14.42-.55,28.03-.22,42.25,2.79l9.13-24.92-71.56.06-2.64,59.05,25.39-5.68c7.54.72,15.21,2.22,19.86,8.45,9.85,13.18,6.62,32.5-6.81,41.72-4.94,3.39-14.82,3.03-15.75-3.46-.62-4.33,1.48-10.33-2.28-13.49-3.81-3.19-9.13-2.93-13.59-.74-2.84,1.4-6.09,5.57-6.92,9.7-2.07,10.24,4.14,19.19,14.59,22.99ZM135.14,207.57c-10.46,18.62-17.67,37.42-23.85,57.22-1.91,6.12-5.65,10.34-10.48,15.06,15.94-5.58,30.8-9.9,47.07-12.53l2.86-21.26c6.86-35.81,20.05-68.9,38.18-100.95l-85.44-.56,4.06,38.63c1,4.17,3.99,7.66,7.46,8.42l.29-16.01c10.67-9.98,27.15-8.57,42.55-8.43l-22.7,40.42ZM304.67,205.41c0-4.73-3.84-8.57-8.58-8.57s-8.58,3.84-8.58,8.57,3.84,8.57,8.58,8.57,8.58-3.84,8.58-8.57ZM198.76,210.03c0-5.64-4.58-10.21-10.22-10.21s-10.22,4.57-10.22,10.21,4.58,10.21,10.22,10.21,10.22-4.57,10.22-10.21ZM93.04,216.6l28.44-9.21c1.59-.51,3.13-2.29,3.46-4.7l-36.55,12.07c5.96,10.46,11.01,20.13,21.44,25.17-5.02-10.02-13.79-13.62-16.79-23.33ZM397.04,251.94c7.23-5.79,8.54-14.9,8.95-22.45l-8.95,22.45ZM162.28,280.28l30.11-9.48-18.67,2.32c-10.32,1.28-19.94,6.17-26.44,14.47l15-7.31Z"/>
  <path class="st0" d="M246.53,438.1c-41.15,3.51-79.66-10.47-109.62-33.02l35.73,10.23c18.24,5.22,37.2,7.08,56.6,7.07,47.92-.03,93.64-11.28,136.99-30.66,20.89-9.34,37.99-21.26,54.69-37.77-5.21,26.9-40.23,49.79-64.09,58.75-35.5,13.34-72.27,22.16-110.3,25.4Z"/>
  <path class="st0" d="M261.64,451.75c-13.75-.98-25.92-1.21-38.31-4.42,36.42-1.41,70.18-5.6,104.47-14.97l45.77-16.8c-15.79,12.52-34.36,19.02-53.37,25.06-19.01,6.03-37.84,9.55-58.57,11.15Z"/>
  <path class="st0" d="M147.54,126.6c1.38,1.7-4.39,6.81-6.56,6.3-12.01-6.07-22.27-14.29-31.82-23.6-6.21-5.32-11.59-10.16-16.45-17.29,12.23,4.57,22.02,10.5,32.58,16.94,8,4.88,15.47,9.29,22.26,17.65Z"/>
  <path class="st0" d="M320.92,114.6c-.17-5.93,1.59-11.13,4.88-15.6,9.88-13.44,20.37-25.75,33.01-37.37-5.4,16.76-14.06,31.19-24.21,44.77-3.21,4.29-7.34,6.99-13.69,8.2Z"/>
  <path class="st0" d="M171.31,114.84c-6.57-1.37-11.37-5.43-14.87-10.65-8.7-12.96-18.32-25.02-24.33-40.5,14.62,10.85,25.17,23.8,35.83,36.91,3.05,3.75,4.47,8.4,3.38,14.24Z"/>
  <path class="st0" d="M400.38,91.81c-11.2,15.43-40.37,45.12-56.8,38.44,17.34-15.35,35.45-28.17,56.8-38.44Z"/>
  <path class="st0" d="M196.53,92.59l-4.18,3.23c-.91.7-2.87-1.3-4.13-2.38-8.92-16.65-17.25-33.38-19.65-53.43,11.15,15.03,25.09,34.5,27.96,52.58Z"/>
  <path class="st0" d="M419.66,178.97c-9.01,2.27-18.17,3.16-27.03,2.19-.78-4.24,2.78-8.05,6.57-8.93,17.6-4.13,35.09-5.83,54-1.73l-33.54,8.47Z"/>
  <path class="st0" d="M302.3,94.23c-3.25-.16-5.17-5.15-4.1-8.08,5.9-16.24,13.67-30.25,23.62-44.32-1.31,16.3-8.37,39.81-19.52,52.4Z"/>
  <path class="st0" d="M209.08,27.82c7.26,16.88,18.86,40.66,5.02,43.58-3.84-14.26-5.64-28.23-5.02-43.58Z"/>
  <path class="st0" d="M160.16,119.35c-2.42,3.07-5.79,1.87-8.13-.1l-20.94-26.16c12,6.35,20.33,15.05,29.06,26.25Z"/>
  <path class="st0" d="M278.12,70.16c-11.53-2.09-4.59-17.69,1.52-32.99,1.3,11.42.72,20.5-1.52,32.99Z"/>
  <path class="st0" d="M359.87,95.95c-5.87,10.24-17.92,25.19-27.98,26.76,6.49-12.41,16.62-20.07,27.98-26.76Z"/>
  <path class="st0" d="M205.6,85.5c-5.13-6.96-6.72-15.26-6.54-24.03,4.66,6.71,9.8,14.35,6.54,24.03Z"/>
  <path class="st0" d="M181.33,103.57c-6.27-6.18-11.07-14.92-14.11-24.75,6.02,6.78,12.69,13.3,14.11,24.75Z"/>
  <path class="st0" d="M249.35,44.51l-4.95.71c.19-8.9.4-15.81,2.56-24.74l2.39,24.04Z"/>
  <path class="st0" d="M98.74,193.46c-8.15,1.37-16.37.44-24.67-1.72,8.68-2.35,16.56-1.87,24.67,1.72Z"/>
  <path class="st0" d="M310.5,101.76c1.86-6.99,6.59-13.5,12.41-18.99-2.57,7.09-4.94,13.89-12.41,18.99Z"/>
  <ellipse class="st0" cx="104.8" cy="390.31" rx="4.35" ry="4.34"/>
  <path class="st0" d="M93.04,216.6c3.01,9.72,11.77,13.32,16.79,23.33-10.43-5.04-15.48-14.71-21.44-25.17l36.55-12.07c-.34,2.41-1.88,4.19-3.46,4.7l-28.44,9.21Z"/>
  <path class="st0" d="M162.28,280.28l-15,7.31c6.5-8.3,16.12-13.19,26.44-14.47l18.67-2.32-30.11,9.48Z"/>
  <path class="st0" d="M201.1,135.64l-27.9-.42c.14-1.09,2.85-3.41,4.29-3.38l22.01.55,1.6,3.25Z"/>
  <path class="st0" d="M397.04,251.94l8.95-22.45c-.41,7.55-1.72,16.66-8.95,22.45Z"/>
</svg>