<?xml version="1.0" encoding="UTF-8"?>
<svg id="Layer_1" xmlns="http://www.w3.org/2000/svg" version="1.1" viewBox="0 0 497.38 483.36">
  <!-- Generator: Adobe Illustrator 30.4.0, SVG Export Plug-In . SVG Version: 2.1.3 Build 187)  -->
  <defs>
    <style>
      .st0 {
        fill: #c9a84c;
      }
    </style>
  </defs>
  <path class="st0" d="M395.08,439.78c-50.15,34.49-109.59,48.74-170.03,41.91-68.39-7.73-132.52-43.18-174.99-97.59C14.72,338.82-2.83,282.36.37,225.25c2.82-50.16,22.31-96.01,53.96-134.07C139.76-11.53,283.78-30.44,391.56,49.65c30.12,22.39,54.87,50.36,73.72,82.7,39.14,67.14,43.1,148.84,8.46,218.42-18.09,36.33-44.82,65.72-78.67,89.01ZM430.14,392.11c23.91-25.88,38.87-56.33,46.71-89.68l7.57-45.09c2.57-32.79-4.32-64.9-17.09-95.36-19.92-47.5-54.23-86.76-96.99-114.46C294.65-1.52,197.96-2.94,121.95,45.97c-38.08,24.5-69.71,58.36-89.28,99.7-37.39,79-20.1,176.33,37.48,240.63,48.04,53.66,118.34,84.39,190.55,83.09,64.62-1.17,125.54-29.78,169.43-77.28Z"/>
  <path class="st0" d="M453.9,240.68c11.22,21.79,6.05,46.01-8.93,64.01-26.38,29.25-73.29,34.98-110.67,23.87-22.59,17.57-43.54,35.55-61.02,57.77l-17.6,26.09c-10.77-16.8-20.86-32.67-34.61-46.21l-36.26-35.71c23.91-.38,44.98,21.84,60.04,40.74-7.71-19.05-21.35-33.4-37.67-45.15l-5.04-3.63-22.2,5.86c-31.81,8.4-64.54,5.79-93.77-9.71-7.12-3.78-12.87-8.74-18.67-14.19-21.86-20.51-24.33-52.81-5.38-76.55,8.26-10.35,19.56-17.63,31.89-23.03l-12.41,17.76c-9.64,16.58-5.78,35.92,8.38,48.85,13.09,11.95,30.29,17.91,48.05,18.68-12.26-6.56-18.07-17.54-13.79-29.83,3.01-8.63,8.65-15.61,16.55-20.37,29.54-18.15,63.16-6.73,89.38,14.4l19.36-14.7-36.51-21.05c-12.7-5.22-25.01-9.7-38.92-10.54-25.89-1.56-49.91,12.47-60.49,36.35-2.73,6.16-3,13.06-4.32,20.23-13.71-44.04-8.73-100.17,33.55-123.88,41.89-23.49,88.64-.18,114.32,39.38l17.17-16.8,16.4-11.1c10.71-7.25,22.49-10.49,35.36-12.18,50.04-6.56,83.83,32.68,85.26,81.98.41,14.06.09,27.09-3.36,40.3-2.02-11.13-2.76-21.04-7.89-30.03-17.78-31.24-60.85-34.93-94.09-17.3l-28.66,18.73-59.03,45.87c-40.56,31.52-114.99,43.28-146.91-.46-5.88-8.06-7.47-17.6-9.13-28.36-4.03,13.19-.46,26.69,7.48,38.47,8.97,13.31,23.42,21.37,38.91,26.58,21.57,7.25,44.9,7.4,66.91,1.54,15.16-4.04,29.07-8.88,42.76-16.61,24.66-13.93,46.87-30.09,69.04-47.76,14.83-11.82,30.73-21.68,49.16-25.63,19.86-4.25,39.93,1.93,51.1,18.47,6.71,9.93,7.4,21.56,1.89,32.03l-16.48,11.86c19.06-1.3,36.86-8.33,50.35-21.25,9.44-9.04,11.96-23.23,7.31-35.37-3.96-10.37-10.23-18.86-16.6-28.62,16.79,7.4,31.1,19.37,39.76,36.18ZM193.11,171.09c19.86-1.35,35.18,5.61,52.62,14.9-9.31-15.79-22.26-27.09-37.47-35.05-21.11-11.05-48-9.46-66,6.41,10.31-3.9,19.41-7.74,29.95-8.74-3.35,8.81-1.41,14.6,5.15,19.28,4.08,1.75,10.2,3.59,15.75,3.21ZM356.13,189.85c5.24-.58,10.26-2.03,11.9-7.89,1.32-4.72-.15-10.2-2.43-15.87,15.4,6.88,22.48,20.63,28.8,36.54-4.31-32.63-35-55.25-68.03-50.18-18.45,2.83-34.49,11.4-47.66,24.85l22.54-6.78c10.77-3.24,24.05.87,31.34,9.41,6.37,7.46,12.29,11.16,23.54,9.92ZM144.1,197.59c-6.36-8.52-8.49-14.21-10.91-23.78-3.28,10.36-.16,20.1,5.76,27.65l5.15-3.88ZM357.85,238.19c-1.55-.67-6.17-.21-7.01.52,3.02,11.5.7,20.28-2.6,31.56,10.88-8.92,15.42-29.59,9.61-32.09ZM443.26,283.75c7.92-11.82,8.67-24.9,2.72-35.39,1.09,8.65.66,16.41-.82,24.71l-1.9,10.68ZM179.5,281c-10.38-4.8-17.86-12.75-24.45-23.48-.69,9.75,2.44,20.9,11.28,26.77,3.3,2.19,9.84-.68,13.17-3.29ZM335.66,302.86l27.33,3.38c20.14,1,50.36-4.45,55.29-23.81l-17.86,7.68c-39.1,11.09-79.47,1.98-112.28-22.56l-19.84,14.79c39.58,28.35,80.93,47.8,130.48,35.34,18.02-4.53,34.58-14.22,43.26-31.11-10.5,10.22-20.5,17.84-34.33,21.73-24.14,6.78-50.01,5.61-72.05-5.43ZM289.2,339.72c9.17-9.68,10.55-16.7,7.56-16.19l-4.06.69c-14.05,12.51-24.64,28.04-28.31,47.45,7.95-11.56,14.99-21.58,24.81-31.95ZM254.71,358.09l8.49-29.39c-7.37,8.46-9.53,20.83-10.31,31.3l2.1,2c.32.31-.4-3.47-.27-3.92Z"/>
  <path class="st0" d="M321.77,127.36l-25.67,16.19-25.7-26.07c-4.7-4.77-8.03-12.65-8.09-19.11-.09-9.52,7.71-15.79,14.99-17.39,9.63-2.11,17.22,2.84,22.42,11.56,5.77-6.73,12.9-10.42,21.04-9.56,9.91,1.05,17.67,10.12,16.55,20.09-1.14,10.13-7.42,17.77-15.55,24.29Z"/>
  <path class="st0" d="M251.88,87.43l-29.84,29.78c-17.17-13.97-44.32-37.52-33.05-56.75,3.53-6.03,10.3-8.28,16.7-7.79,6.02.46,11.29,4.99,15.86,10.67,4.63-5.85,10.27-9.95,16.85-10.66s13.33,1.96,17.32,8.59c4.68,7.78,3.21,19.12-3.84,26.16Z"/>
  <path class="st0" d="M187.02,356.27c-.23,5.57-2.23,11.8-5.47,15.61l-26.95,31.71-31.97-22.74c-8.92-6.34-13.08-18.07-9-28.56,2.77-7.13,10.3-10.79,16.73-11.43,8.02-.8,14.4,3.69,20.48,10.11,3.7-7.03,12.96-12.63,18.9-7.18,3.71,3.41,5.27,5.8,11.39,5.07,2.26-.27,6.06,3.68,5.9,7.4Z"/>
  <path class="st0" d="M340.07,391.52c-11.42-11.11-23.99-26.5-14.3-37.01l7.98,1.76c1.14-2.55,3.01-6.45,4.69-7.97,5.1-4.62,13.94-.9,20.33,7.18,3.72-7.51,10.76-11.81,18.07-12.21s15.13,3.61,18.25,11.53c4.23,10.73-.23,23.18-9.48,29.96l-29.94,21.96-15.61-15.19Z"/>
  <path class="st0" d="M158.05,118.18c-1.57.98-5.32-1.06-6.13-2.71l-16.97-34.48c-2.59-5.26-5.14-9.88-6.71-16,8.16,6.85,12.71,15.16,19.51,22.89l20.88,23.72-10.59,6.58Z"/>
  <path class="st0" d="M358.09,123.77c-2.25,4.11-8.65,1.55-10.66-1.22-3.11-4.28-.77-7.42,2.76-10.88,11.47-11.26,19-25.04,31.98-36.42-6.06,17.75-15.39,32.64-24.08,48.52Z"/>
  <path class="st0" d="M100.63,354.38c-10.74,10.52-28.76-2.14-37.57-16.54,15.96-.53,33.06,3.07,37.57,16.54Z"/>
  <path class="st0" d="M131.25,126.48l-18.64-19.18c-6.39-6.57-12.85-12.54-17.16-21.91,12.65,8.54,48.59,34.68,43.44,41.52-1.27,1.69-5.64,1.62-7.63-.42Z"/>
  <path class="st0" d="M427.81,360.52c-6.18,3.3-13.04,1.85-16.93-4.17,10.73-8.51,22.86-14.19,36.16-17.54-2.4,10.75-10.32,16.96-19.23,21.71Z"/>
  <path class="st0" d="M185.88,112.09c-5.02-3.2-6.59-8.59-7.71-13.87l-10.25-48.21,22.93,56.56.05,4.97c.01,1.06-4.04,1.17-5.02.55Z"/>
  <path class="st0" d="M251.59,136.74c-5.37-3.22-10.54-7.48-11.25-13.43-.58-4.88,2.54-10.16,5.87-11.22,4.66-1.48,10.62-.66,12.11,4.28,2.29,7.58-2.24,14.33-6.73,20.36Z"/>
  <path class="st0" d="M378.91,135.27c-1.16,1.08-7.31,1.65-7.04.31l1.25-6.09c11.28-10.93,22.36-21.27,36.8-30.02-7.97,12.68-19.74,25.33-31,35.8Z"/>
  <path class="st0" d="M101.03,170.81c-4.19,4.76-10.72,3.54-15.55.7-10.04-5.92-19.48-11.43-27.11-20.69l25.85,11.38,16.81,8.61Z"/>
  <path class="st0" d="M447.48,152.1c-11.6,11.63-40.93,24.43-39.22,19.43l1.39-4.06c12.12-6.53,23.09-14.28,37.83-15.37Z"/>
  <path class="st0" d="M115.82,137.42c-2.09,2.58-6.45,1.33-8.84-.58-10.42-8.33-21.71-15.22-29.18-27.26,14.65,6.64,25.94,16.52,38.02,27.84Z"/>
  <ellipse class="st0" cx="309.08" cy="400.26" rx="7.81" ry="7.85"/>
  <ellipse class="st0" cx="203.58" cy="391.37" rx="7.46" ry="7.51"/>
  <path class="st0" d="M429.13,380.06c-3.54,3.1-7.51,6.24-10.38,6.22-4.34-.02-8.67-3.37-10.52-6.45,7.11-6.7,15.18-5.7,20.89.23Z"/>
  <path class="st0" d="M416.49,134.93c-6.64,6.63-14.05,13.28-23.68,14.39,9.08-10.39,19.65-17.31,31.92-22.61l-8.24,8.23Z"/>
  <path class="st0" d="M312.19,59c-1.77,5.41-12.19,4.66-13.93-.92-1.13-3.64,3.35-7.15,6.43-7.28,3.68-.16,9.26,2.84,7.5,8.21Z"/>
  <path class="st0" d="M102.28,378.33c-2.78,2.57-6.5,4.93-11.08,5.63-2.71.41-6.53-3.31-7.38-5.81,5.36-4.38,11.71-5.34,18.46.18Z"/>
  <path class="st0" d="M329.69,78.08c-1.99-10.64,2.97-19.22,6.7-27.67.89,9.8-.16,19.82-6.7,27.67Z"/>
  <path class="st0" d="M70.08,185.86c-1.27,1.6-6.26,3.62-9.09,3.45-2.32-.14-5.71-2.73-7.6-4.87,4.91-4.72,10.71-5.19,16.7,1.41Z"/>
  <path class="st0" d="M449.5,185.58c-1.21,7.63-13.22,5.88-15.27,1.54,2.6-4.08,13.47-6.5,15.27-1.54Z"/>
  <ellipse class="st0" cx="455.2" cy="210.14" rx="4.88" ry="4.91"/>
  <ellipse class="st0" cx="53.58" cy="206.62" rx="4.54" ry="4.57"/>
  <ellipse class="st0" cx="180.66" cy="412.34" rx="4.29" ry="4.32"/>
  <path class="st0" d="M103.47,151.65c-6.5-1.26-12.42-5.63-17.33-11.08,6.57,2.03,12.35,4.44,17.33,11.08Z"/>
  <path class="st0" d="M337.18,418.75c.24,1.71-4.03,3.7-6.07,3.06-1.57-.49-3.48-3.67-2.95-5.25,1.21-3.59,8.18-3.77,9.02,2.19Z"/>
  <path class="st0" d="M348.94,88.89c1.01-6.07,3.27-11.37,8.29-15.95-.41,6.06-3.14,11.35-8.29,15.95Z"/>
  <path class="st0" d="M282.29,66.75c-1.22-7.68-.54-15.17,1.43-22.7,1.05,7.92,1.25,15.1-1.43,22.7Z"/>
</svg>