<?xml version="1.0" encoding="UTF-8"?>
<svg id="Layer_1" xmlns="http://www.w3.org/2000/svg" version="1.1" viewBox="0 0 499.55 483.23">
  <!-- Generator: Adobe Illustrator 30.4.0, SVG Export Plug-In . SVG Version: 2.1.3 Build 187)  -->
  <defs>
    <style>
      .st0 {
        fill: #c9a84c;
      }
    </style>
  </defs>
  <path class="st0" d="M114.5,190.9c-6.77-5.31-10.35-12.3-5.81-20.63-.23-8.65-3.52-12.45-10.37-15.2l-11.59-10.22c-17.79-12.52-35.98-24.84-47.46-43.05-15.48-24.57-15.54-55.82,7.63-75.94-1.79,22.6,4.29,43.03,19.66,60.58,49.93,57.01,116.92,54.93,132.31,105.02,20.24-23.24,34.78-55.12,16.31-77.97l-7.76-18.21c-.43-1.01-2.7-4.68-1.67-3.17h37.71c16.72-1.22,28.41,10.21,40.42,19.13l15.48,11.52-23.13,10.02c-10.2,16.39,8.61,40.38,23.19,58.65,17.66-50.54,83.16-48.25,133.5-104.8,15.46-17.36,22.51-38.2,19.56-60.79,23.91,20.96,23.43,52.44,6.99,77.26-13.85,20.91-34.09,33.58-56.9,48.24,22.97-.78,44.93-11.83,62.79-26.31,15.24-12.36,22.33-28.31,29.76-48.26,12.53,36.9-2.52,75.28-31.56,99.08,13.79.35,23.02-7.95,33.48-17.07.55,29.3-16.71,50.52-39.97,65.9,11.81-.06,20.95-5.88,32.29-10.22-4.33,30.84-28.72,57.06-59.11,63.25-25.87,5.27-52.77-.06-74.5-14.84,18.34,3.53,33.9,9.78,51.67,10.96,34.88,2.3,60.58-19.76,75.31-50.71-12.44,6.57-23.55,6.92-36.95,8.32-22.89,2.39-46.07,2.99-67.99-4.41l-14.86,18.44c18.07,5.82,36.23,9.44,56.85,14.06-22.35,3.23-53.48-12.64-62.2-10.18l-20.45,5.77c2.8,5.48,4.41,8.46,6.17,15.92-10.39-8.05-20.76-10.59-31.74-4.43,13.02,1.88,26.69,2.13,35.67,10.03,19.17,16.86,40.17,22.51,67.95,19.48-28.36,22.2-66.91,21.14-96.65,3.61-6.34-3.73-16.27-3.76-22.24-.04-4.54,2.83-10.59,9.57-11.31,17.25-1.76,18.71,9.1,39.53,26.21,48.39,8.11,4.2,18.06,1.98,29.07,2.26-1.39,9.7-7.26,16.94-15.21,21.58-6.13,3.58-14.16,2.73-19.35-2.45,11.47-.1,20.22-2.45,25.47-12.7-34.53,5.65-49.29-26.33-59.53-58.32-5.36-16.75,2.45-35.57,19.09-44.21,11.13-5.78,25.06-9.37,37.1-13.04l2.26-9.74c16.73-1.02,33.76-7.82,40.36-25.28-11.74,2.74-21.44,6.28-33.5,1.16l23.11-7.31c12.41-3.93,20.77-14.4,26.87-25.7,2.92,13.61-5.91,21.63-16.75,29.33,56.04,14.72,103.72,5.86,120.78-50.15-12.05,7.31-23.78,11.46-36.55,16.36-19.98,7.67-41.55,13.47-62.37,6.05,20.94-3.55,40.66-.33,57.69-11.43,6.29-4.1,12.56-12.3,18.22-18.01,18.03-18.16,26.59-42.15,25.58-65.63-17.76,36.11-59.97,61.02-98.11,58.57-5.15,5.98-6.13,15.35-2,24.28l45.01-12.4c-13.77,8.76-29.33,11.76-45.13,15.64-11.38,9.59-24.48,17.17-39.6,12.56,17.91-5.37,30.33-14.89,31.39-32.73.47-7.87,5.57-14.12,12.57-17.94,42.21-23.03,82.6-57.39,60.99-104.14-4.65,47.58-48.55,78.43-88.78,98.73-15.86,8.01-30.95,14.76-44.93,25.98-8.31,6.67-19.91,19.9-17.6,30.89,11.92,56.7-28.73,62.74-36.9,90.15-5.19,17.43-7.1,39.47.37,54.76l10.9,22.31c5.76,11.79,13.27,22.03,18.33,34.03,6.83,16.21,3.68,36.41-12.55,45.98,3.29-14.28,1.67-25.95-7.6-33.43,5.08,17.86.98,33.52-11.54,44.53l-18.41,16.19c-23.48-17.42-40.54-32.13-31.28-59.65-11.57,7.42-12.16,19.33-7.43,31.42-28.12-17.03-12.49-48.96,4.54-76.75,10.73-17.5,10.3-35.58,7.37-55.33-2.39-16.1-8.26-32.31-26.1-36.54-13.36-3.17-31.06-.6-42.31,8.2-14.06,10.99-28.09,17.82-47.62,18.99,23.57,7.66,48.41,3.66,70.33-8.38,8.6-4.72,18.11-5.44,26.96-1.08,14.92,7.35,21.54,29.33,13.11,47.13-10.13,21.39-24.64,36.2-49.1,34.23,4.59,9.91,13.89,12.75,25.15,12.86-6.32,5.55-15.42,4.43-22.19.07-5.75-3.71-10.5-11-11.99-19.55,8.99-.47,17.7,1.56,24.35-1.12,20.42-8.22,34.11-33.3,29.41-54.15-1.48-6.58-9.24-12.69-13.86-14.63-5.41-2.28-13.8-.84-19.72,2.28-29.31,15.45-65.99,19.06-94.16-3.38,27.98,1.62,52.79-3.93,70.24-24.25,11.08-2.5,20.12-4.99,26.86-7.36,14.93-2.32,38.69,9.54,44.6,27.86,11.01,34.18,1.37,67.48-16.81,96.28-6.91,10.94-10.65,23.77-6.8,36.54,4.98-8.41,9.52-15.9,15.91-22.96,9.93-10.97,16.09-23.36,21.84-36.64.25,13.57-3.94,26.01-11.33,37.1-15.88,23.85-3.35,44.16,19.36,61.68l16.63-15.48c13.57-12.63,12.43-32.12,2.14-46.83-7.98-11.4-14.23-24.2-12.07-39.37,5.77,14.31,12.3,27.12,23.02,38.5,6.67,7.08,10.82,14.42,16.01,24.24,2.56-10.96,1.29-22.45-4.02-32.33l-22.59-42.05c-17.78-33.09-10.11-73.58,18.27-97.81,22.34-19.06,20.57-47.31,2-70.01,4.41,20.38-.63,37.36-12.03,53.91-11.78,17.11-20.56,33.96-27.54,56.19-4.96-20.19-12.21-36.62-24.43-52.14-12.76-16.21-18.38-34.79-15.43-55.91-19.38,26.72-18.41,48.76,6.02,71.09,15.7,14.35,25.21,31.13,26.64,52.76.96,14.46.78,28.99-5.54,41.27-.62-46.74.94-64.15-31.56-94.95-16.78-15.91-17.86-35.09-12.89-56.47,2.93-12.63-8.7-26.66-18.58-33.84-13.75-9.98-27.98-16.3-42.83-24.21-41.52-22.12-83.04-49.8-89.58-99.67-10.06,17.24-8.25,37.95,2.78,55.47,20.55,32.64,52.93,42.48,66.9,56.12,6.44,6.29,4.71,18.09,7.48,25.46,3.61,9.62,16.39,12.36,25.61,18.05-10.25,2.47-20.37-1.06-29.13-6.05ZM272.55,231.48c13.81-19.41,14.29-43.13,1.31-63.46-4.69-10.78-10.16-22.13-5.78-34.25,2.5-6.91,12.65-10.6,20.32-12.65-17.9-8.37-24.67-24.88-48.7-24.32l-22.72.54c2.31,4.32,3.66,10.97,3.93,15.1,15.14,21.52,10.34,36.33,1.29,60.38-11.81,20.81-8.09,44.48,6.57,62.75,8.79,10.95,15.1,23.31,20.52,36.84,6.94-14.84,14.27-28.28,23.26-40.92ZM322.64,294.38c21.77,13.16,46.11,15.96,68.88,8.11-15.53-1.64-29.15-5.45-41.31-14.76-15.2-11.64-35.75-18.46-54.46-10.5-15.14,6.45-21.72,24.73-17.29,41.28l6.79-13.55c7.22-14.41,22.86-19.35,37.38-10.58Z"/>
  <path class="st0" d="M98.32,155.06c-5.93,1.31-14.11,1.41-20.73-.79-32.56-10.82-59.96-28.35-72.48-59.2-.09,34.52,17.02,68.43,45.69,87.5,15.96,10.62,35.48,6.59,54.62,12.11-23.35,5.11-46.35-1.1-67.65-10.74l-29.59-13.39c5.17,23.76,23.77,45.98,48.16,52.97,23.33,6.68,48.77,3.76,70.44-2.92-16.25-13.86-20.34-30.25-15.78-29.95l3.52.24c2.81,15.36,15.45,25.25,30.67,28.83,5.61,1.32,10.13,2.62,16.16,5.88-11.09,2.88-20.62,1.18-32.11-.31,8.57,17.79,25.25,22.5,43.02,24.32-1.44,9.24-5.06,17.81-16.24,19.58l6.44-15.27-25.74-5.09c-18.54,5.82-35.89,11.62-55.01,9.74,18.44-2.56,37.1-6.87,54.54-12.22-6.21-7.2-9.94-12.08-14.53-19.51-25.32,8.94-52.26,7.86-78.38,2.68l-24.75-4.9c10.93,29.39,37.6,49.09,69.36,49.33,18.23.14,34.93-5.43,53.03-10.5-16.69,13.08-37.98,16.88-59.38,15.89-36.36-1.67-66.38-28.81-71.64-64.51,9.28,3.44,16.84,6.07,26.02,8.13C16.57,204.18,1.29,184.96,1.42,157.21c8.68,8.31,17.55,15.91,29.93,17.04C6.7,148.07-8.06,112.66,4.67,76.74c6.65,21.33,14.83,37.56,31.6,49.98,18.54,13.72,39.58,23.43,62.05,28.35Z"/>
  <path class="st0" d="M16.01,259.16c3.01,40.58,14.75,76.65,36.68,110.1,36.37,55.49,93.38,93.89,159.01,104.96,138.53,23.36,265.93-81.55,273.17-221.49.39-7.61,1.75-13.82,4.69-22.23,1.96,10.21,1.41,19.16.56,29.72-10.74,133.9-127.58,234.2-261.24,221.99C101.12,470.56,4.54,361.46,9.2,232.28c3.99,7.85,6.08,16.9,6.81,26.88Z"/>
  <path class="st0" d="M407.94,65.56c-92.14-80.85-227.53-79.71-318.22,1.85-4.28,3.85-8.69,6.94-15.7,9.49,16.4-20.84,37.77-35.81,62.36-48.78,72.56-38.26,160.73-37.48,232.32,2.39,22.41,12.48,41.23,26.58,57.13,46.47-6.81-2.66-11.82-6.1-17.88-11.42Z"/>
  <path class="st0" d="M216.69,462.32c-20.48,2.41-36.83-5.18-54.82-12.78-72.9-30.78-130.3-103.52-132.08-185.35,20.75,109.11,79.63,170.8,186.91,198.13Z"/>
  <path class="st0" d="M282.47,463.4l46.25-15.71c79.51-31.06,127.59-99,139.59-184.83,2.69,49.3-22.75,98.67-55.85,134.56-33.79,36.62-78.47,61.68-129.98,65.98Z"/>
  <path class="st0" d="M90.69,177.39c2.92.58,7.88,3.47,9.59,6.08-26.95-5.14-53.42-15.39-71.78-36.82,19.04,13.62,38.17,25.96,62.19,30.74Z"/>
</svg>