<?xml version="1.0" encoding="UTF-8"?>
<svg id="Layer_1" xmlns="http://www.w3.org/2000/svg" version="1.1" viewBox="0 0 137.17 499.63">
  <!-- Generator: Adobe Illustrator 30.4.0, SVG Export Plug-In . SVG Version: 2.1.3 Build 187)  -->
  <defs>
    <style>
      .st0 {
        fill: #c9a84c;
      }
    </style>
  </defs>
  <path class="st0" d="M68.58,126.87c-.79,0-1.43.64-1.43,1.44v43.4c0,.79.64,1.44,1.43,1.44s1.43-.64,1.43-1.44v-43.4c0-.79-.64-1.44-1.43-1.44Z"/>
  <path class="st0" d="M70.02,83.78c0-.79-.64-1.44-1.43-1.44s-1.43.64-1.43,1.44v24.89c0,.79.64,1.44,1.43,1.44s1.43-.64,1.43-1.44v-24.89Z"/>
  <path class="st0" d="M59.66,119.93h17.84c.79,0,1.43-.64,1.43-1.44s-.64-1.44-1.43-1.44h-17.84c-.79,0-1.43.64-1.43,1.44s.64,1.44,1.43,1.44Z"/>
  <path class="st0" d="M58.23,118.49c0,.79.64,1.44,1.43,1.44h17.84c.79,0,1.43-.64,1.43-1.44s-.64-1.44-1.43-1.44h-17.84c-.79,0-1.43.64-1.43,1.44Z"/>
  <path class="st0" d="M71.12,112.62c.28.28.65.42,1.01.42s.73-.14,1.01-.42c.56-.56.56-1.47,0-2.03l-7.1-7.11c-.56-.56-1.47-.56-2.03,0-.56.56-.56,1.47,0,2.03l7.1,7.11Z"/>
  <path class="st0" d="M64.02,124.36c-.56.56-.56,1.47,0,2.03l7.1,7.11c.28.28.65.42,1.01.42s.73-.14,1.01-.42c.56-.56.56-1.47,0-2.03l-7.1-7.11c-.56-.56-1.47-.56-2.03,0Z"/>
  <path class="st0" d="M71.12,124.36l-7.1,7.11c-.56.56-.56,1.47,0,2.03.28.28.65.42,1.01.42s.73-.14,1.01-.42l7.1-7.11c.56-.56.56-1.47,0-2.03-.56-.56-1.47-.56-2.03,0Z"/>
  <path class="st0" d="M64.02,112.62c.28.28.65.42,1.01.42s.73-.14,1.01-.42l7.1-7.11c.56-.56.56-1.47,0-2.03-.56-.56-1.47-.56-2.03,0l-7.1,7.11c-.56.56-.56,1.47,0,2.03Z"/>
  <path class="st0" d="M67.15,211.61c-.01.12-1.44,11.8-6.88,17.25-5.4,5.41-11.46,6.12-11.52,6.13-.73.07-1.29.69-1.29,1.43h0c0,.74.56,1.36,1.28,1.44.06,0,6.12.72,11.52,6.13,5.44,5.45,6.86,17.13,6.88,17.25.08.72.71,1.27,1.43,1.27s1.34-.55,1.42-1.27c.01-.12,1.44-11.8,6.88-17.25,5.4-5.41,11.46-6.12,11.52-6.13.73-.07,1.29-.7,1.29-1.44s-.56-1.35-1.29-1.43c-.06,0-6.07-.68-11.52-6.13-5.44-5.45-6.86-17.13-6.88-17.25-.08-.72-.71-1.27-1.43-1.27s-1.34.55-1.42,1.27ZM74.86,230.89c2.83,2.84,5.8,4.53,8.21,5.53-2.41,1-5.38,2.7-8.21,5.53-3.21,3.22-5.15,8.09-6.28,12.1-1.13-4-3.07-8.88-6.28-12.1-2.83-2.84-5.8-4.53-8.21-5.53,2.41-1,5.38-2.7,8.21-5.53,3.21-3.22,5.15-8.09,6.28-12.1,1.13,4,3.07,8.88,6.28,12.1Z"/>
  <ellipse class="st0" cx="68.58" cy="142.19" rx="2.39" ry="2.39"/>
  <path class="st0" d="M136.2,139.05c-.17-.05-4.17-1.27-9.82-1-5.22.25-12.91,1.86-19.85,8.15-5.9,5.34-8.33,14.39-10.9,23.97-2.04,7.6-4.15,15.45-8.11,21.26-3.67,5.38-8.47,8.37-14.89,9.21-1.34-.1-2.69-.14-4.05-.14s-2.71.05-4.05.14c-6.42-.84-11.22-3.83-14.89-9.21-3.96-5.81-6.07-13.66-8.11-21.26-2.57-9.58-5-18.63-10.9-23.97-6.95-6.29-14.63-7.91-19.85-8.15-5.65-.27-9.65.95-9.82,1-.72.22-1.12.98-.9,1.7.22.72.98,1.12,1.7.9.04-.01,3.79-1.14,8.99-.88,6.91.35,12.98,2.85,18.05,7.45,5.3,4.81,7.63,13.48,10.1,22.66,2.1,7.82,4.27,15.9,8.49,22.09,2.74,4.01,6.11,6.87,10.19,8.61-3.69.74-7.3,1.85-10.8,3.33-6.67,2.83-12.66,6.87-17.8,12.02-5.14,5.15-9.18,11.15-12,17.83-2.92,6.92-4.4,14.26-4.4,21.84s1.48,14.92,4.4,21.84c2.82,6.68,6.86,12.68,12,17.83,5.14,5.15,11.13,9.2,17.8,12.02,6.9,2.93,14.24,4.41,21.8,4.41s14.89-1.48,21.8-4.41c6.67-2.83,12.66-6.87,17.8-12.02,5.14-5.15,9.18-11.15,12-17.83,2.92-6.92,4.4-14.26,4.4-21.84s-1.48-14.92-4.4-21.84c-2.82-6.68-6.86-12.68-12-17.83-5.14-5.15-11.13-9.2-17.8-12.02-3.5-1.48-7.11-2.59-10.8-3.33,4.08-1.74,7.45-4.6,10.19-8.61,4.22-6.19,6.39-14.27,8.49-22.09,2.47-9.18,4.8-17.85,10.1-22.66,5.07-4.59,11.14-7.1,18.05-7.45,5.18-.26,8.92.86,8.99.88.72.22,1.48-.18,1.7-.9.22-.72-.18-1.48-.9-1.71ZM121.86,256.6c0,29.43-23.9,53.37-53.27,53.37s-53.27-23.94-53.27-53.37c0-19.22,10.19-36.09,25.44-45.49-1.02.85-2.01,1.76-2.96,2.71-8.23,8.24-12.76,19.2-12.76,30.85s4.53,22.61,12.76,30.85c8.23,8.24,19.16,12.78,30.8,12.78s22.57-4.54,30.8-12.78c8.23-8.24,12.76-19.2,12.76-30.85s-4.53-22.61-12.76-30.85c-.95-.95-1.94-1.86-2.96-2.71,15.25,9.4,25.44,26.27,25.44,45.49ZM109.41,244.68c0,22.55-18.32,40.9-40.83,40.9s-40.83-18.35-40.83-40.9,18.32-40.9,40.83-40.9,40.83,18.35,40.83,40.9Z"/>
  <ellipse class="st0" cx="68.58" cy="142.19" rx="2.39" ry="2.39"/>
  <ellipse class="st0" cx="68.58" cy="186.23" rx="5.1" ry="5.11"/>
  <ellipse class="st0" cx="68.58" cy="378.84" rx="5.1" ry="5.11"/>
  <ellipse class="st0" cx="68.58" cy="325.06" rx="3.5" ry="3.51"/>
  <path class="st0" d="M54.88,351.31c0,7.57,6.15,13.73,13.71,13.73s13.71-6.16,13.71-13.73-6.15-13.73-13.71-13.73-13.71,6.16-13.71,13.73ZM68.58,340.31c6.06,0,10.98,4.94,10.98,11s-4.93,11-10.98,11-10.98-4.94-10.98-11,4.93-11,10.98-11Z"/>
  <path class="st0" d="M63.91,31.15c1.53,2.42,3.3,5.93,4.15,7.68.21.43.83.43,1.04,0,.86-1.75,2.62-5.26,4.15-7.68,1.62-2.56,3.5-4.66,4.29-5.5.21-.22.21-.56,0-.79-.96-1.06-3.56-4.82-5.13-9.31-1.3-3.7-2.56-10.48-3.27-15.07-.1-.66-1.04-.66-1.15,0-.71,4.58-1.97,11.36-3.27,15.07-1.57,4.49-4.17,8.25-5.13,9.31-.2.22-.2.57,0,.79.79.84,2.68,2.94,4.29,5.5Z"/>
  <path class="st0" d="M67.15,482.88c0,.79.64,1.44,1.43,1.44s1.43-.64,1.43-1.44v-34.31c0-.79-.64-1.44-1.43-1.44s-1.43.64-1.43,1.44v34.31Z"/>
  <path class="st0" d="M78.94,438.76c0-.79-.64-1.44-1.43-1.44h-17.84c-.79,0-1.43.64-1.43,1.44s.64,1.44,1.43,1.44h17.84c.79,0,1.43-.64,1.43-1.44Z"/>
  <path class="st0" d="M77.5,437.32h-17.84c-.79,0-1.43.64-1.43,1.44s.64,1.44,1.43,1.44h17.84c.79,0,1.43-.64,1.43-1.44s-.64-1.44-1.43-1.44Z"/>
  <path class="st0" d="M66.05,423.75c-.56-.56-1.47-.56-2.03,0-.56.56-.56,1.47,0,2.03l7.1,7.11c.28.28.65.42,1.01.42s.73-.14,1.01-.42c.56-.56.56-1.47,0-2.03l-7.1-7.11Z"/>
  <path class="st0" d="M66.05,444.63c-.56-.56-1.47-.56-2.03,0-.56.56-.56,1.47,0,2.03l7.1,7.11c.28.28.65.42,1.01.42s.73-.14,1.01-.42c.56-.56.56-1.47,0-2.03l-7.1-7.11Z"/>
  <path class="st0" d="M71.12,444.63l-7.1,7.11c-.56.56-.56,1.47,0,2.03.28.28.65.42,1.01.42s.73-.14,1.01-.42l7.1-7.11c.56-.56.56-1.47,0-2.03-.56-.56-1.47-.56-2.03,0Z"/>
  <path class="st0" d="M64.02,432.89c.28.28.65.42,1.01.42s.73-.14,1.01-.42l7.1-7.11c.56-.56.56-1.47,0-2.03-.56-.56-1.47-.56-2.03,0l-7.1,7.11c-.56.56-.56,1.47,0,2.03Z"/>
  <path class="st0" d="M68.58,429.74c.79,0,1.43-.64,1.43-1.44v-34.31c0-.79-.64-1.44-1.43-1.44s-1.43.64-1.43,1.44v34.31c0,.79.64,1.44,1.43,1.44Z"/>
  <ellipse class="st0" cx="68.58" cy="496.12" rx="3.5" ry="3.51"/>
  <ellipse class="st0" cx="68.58" cy="51.23" rx="3.5" ry="3.51"/>
  <path class="st0" d="M63.49,68.46c0,2.82,2.28,5.11,5.1,5.11s5.1-2.29,5.1-5.11-2.28-5.11-5.1-5.11-5.1,2.29-5.1,5.11Z"/>
</svg>