<?xml version="1.0" encoding="UTF-8"?>
<svg id="Layer_1" xmlns="http://www.w3.org/2000/svg" version="1.1" viewBox="0 0 500 285.65">
  <!-- Generator: Adobe Illustrator 30.5.0, SVG Export Plug-In . SVG Version: 2.1.4 Build 138)  -->
  <defs>
    <style>
      .st0 {
        fill: #e6e6e6;
      }
    </style>
  </defs>
  <path class="st0" d="M398.4,147.9c-.88,7.6-1.41,15.41-2.75,23.07-5.06,28.79-17.24,54.04-39.1,73.86-18.31,16.59-39.41,28.58-63.37,35.18-12.98,3.58-26.26,5.83-39.69,5.63-32.31-.49-62.22-9.44-88.9-27.87-7.7-5.31-14.55-11.9-21.49-18.23-2.94-2.68-5.75-3.57-9.64-2.95-17.42,2.79-34.86,5.31-52.45,6.92-12.77,1.16-25.49,1.27-38.24.9-9.2-.27-18.19-2.08-26.97-4.83-.21-.07-.42-.14-.64-.22-14.86-4.98-19.28-16.69-11.09-30.09,5.05-8.27,11.59-15.35,19.21-21.37,12.32-9.74,25.57-18.03,39.37-25.51,10.82-5.87,21.66-11.63,33.13-16.15,2.69-1.06,5.23-2.47,8.15-3.87.34-3.8.85-7.54.98-11.3.69-20.55,6.95-39.49,16.68-57.36,7.34-13.48,16.94-25.39,28.3-35.58,12.7-11.4,27.05-20.59,43.03-26.92C212.03,3.61,231.89-.28,252.49.02c15.29.22,30.21,2.71,44.69,7.77,14.18,4.95,27.96,10.59,40.59,18.94,8.88,5.87,16.86,12.54,23.42,20.9,1.24,1.58,2.66,3.01,4.39,4.96,3.74-.65,7.64-1.32,11.54-2.01,16.48-2.93,32.88-6.5,49.46-8.59,12.38-1.56,25.01-1.63,37.52-1.54,8.47.06,16.88,1.71,24.76,5.26,6.21,2.8,9.78,7.49,10.91,14.23.7,4.2-.36,8.09-2.25,11.57-2.11,3.89-4.8,7.55-7.66,10.95-8.57,10.17-19.15,18.13-29.54,26.29-16.78,13.18-35.15,23.83-53.72,34.17-2.15,1.2-4.32,2.36-6.46,3.58-.57.33-1.04.82-1.76,1.4ZM388.37,110.05c-1.02-3.99-1.64-7.03-2.58-9.97-4.04-12.67-10.24-24.36-17.81-35.17-7.7-10.99-16.48-21.21-27.45-29.25-14-10.27-29.51-17.64-45.77-23.51-4.4-1.59-8.84-3.13-13.37-4.25-11.17-2.74-22.6-2.67-34.02-2.82-18.66-.26-36.39,4.03-53.48,10.98-20,8.14-36.88,20.68-51.28,36.86-12.45,13.99-20.9,30.02-26.73,47.57-4.7,14.15-5.52,28.84-5.52,43.66,0,18.27,4.9,35.26,12.62,51.59.74,1.57,1.81,2.98,2.82,4.61,4.01-.21,7.83-.15,11.57-.66,19.48-2.65,38.71-6.45,57.82-11.22,31.49-7.86,62.03-18.55,92.23-30.15,23.14-8.89,46.06-18.48,67.93-30.3,10.79-5.83,21.56-11.72,33.03-17.97ZM246.12,257.24c-.03.46-.07.91-.1,1.37-1.6.11-3.23.48-4.78.28-24.73-3.25-45.66-14.69-64.2-30.23-2.25.48-4.01.8-5.73,1.23-1.82.46-3.61,1.02-6.14,1.75,4.66,3.98,8.59,7.63,12.83,10.88,4.07,3.12,8.34,6.05,12.76,8.66,4.61,2.73,9.53,4.92,14.26,7.45,4.54,2.42,9.97,2.88,15.03,6.48-1.61.22-2.29.53-2.8.35-9.29-3.24-18.5-6.6-27.02-11.7-9.45-5.66-18.13-12.3-26.3-19.63-1.42-1.27-2.76-2.25-4.75-1.78-3.15.74-6.3,1.47-9.94,2.31,5.22,6.12,10.74,10.89,16.67,15.26,18.1,13.34,38.34,21.85,60.14,26.93,15.64,3.65,31.45,4.45,47.26,2.11,15.78-2.34,30.91-7.17,45.07-14.6,40.48-21.24,65.17-54.14,72.82-99.38.72-4.24,1.05-8.69-.21-13.3-2.98,1.37-5.59,2.56-8.14,3.74-1.14,18.56-7.43,35.09-16.41,50.76-8.52,14.87-27.95,36.1-38.6,38.23,29.87-22.44,47.96-50.61,52.69-87.6-5.9,2.61-11.16,4.85-16.35,7.25-27.8,12.85-56.16,24.33-85.01,34.62-29.68,10.59-60.05,18.87-90.47,26.99-2.42.65-5.19.72-7.24,3.07,9.3,8.06,19.39,14.22,30.21,19.15,10.91,4.97,22.64,7.29,34.43,9.34ZM104.85,147.92c-1.04.15-1.73.08-2.24.34-15.21,7.57-30.63,14.75-45.54,22.89-14.97,8.17-28.82,18.11-40.51,30.69-3.17,3.41-5.92,7.27-8.54,11.14-4.28,6.3-3.99,14.7,5.54,19.51,8.21,4.14,16.96,5.81,25.87,6.29,17.46.93,34.99.84,52.32-1.41,20.37-2.65,40.7-5.77,60.89-9.52,30.1-5.59,59.58-13.82,88.87-22.69,25.25-7.65,49.99-16.74,74.48-26.55,28.46-11.41,56.28-24.17,83.27-38.69,11.02-5.93,21.68-12.53,32.52-18.8,16.93-9.78,32.58-21.34,46.78-34.74,5-4.72,9.62-10.14,13.22-15.98,5.88-9.52,2.74-16.87-6.19-20.84-5.37-2.39-11-3.69-16.87-3.98-19.74-.96-39.34-.07-58.8,3.74-13.47,2.64-27.02,4.91-40.63,7.37,1.31,3.95,3.93,3.99,6.74,3.47,3.96-.72,7.87-1.7,11.85-2.25,16.61-2.28,33.23-4.7,50.02-4.91,7.55-.1,15.19.37,22.41,3.22,7.6,3,10.02,8.58,6.84,16.07-1.86,4.39-4.6,8.14-7.95,11.52-9.84,9.93-21.2,17.87-33.04,25.16-21.35,13.15-43.7,24.39-66.24,35.37-31.63,15.41-64.35,28.01-97.56,39.33-34.03,11.6-68.69,21.24-103.94,28.49-15.95,3.28-32.09,5.68-48.14,8.46-18.58,3.23-37.3,4.68-56.14,3.5-4.86-.3-9.8-1.2-14.44-2.67-10.64-3.38-12.94-9.91-7.19-19.64,3.21-5.43,7.43-10.06,12.4-13.98,13.57-10.69,27.94-20.15,43.26-28.15,4.36-2.28,8.78-4.45,13.12-6.77,1.71-.91,3.85-1.62,3.56-4.98ZM377.52,69.92c10.5-.52,19.86-1.35,29.21-1.28,4.33.03,8.9,1.23,12.89,2.97,5.39,2.34,7.09,7.52,4.81,12.93-1.11,2.63-2.73,5.15-4.58,7.33-4.81,5.65-10.59,10.23-16.69,14.48-19.34,13.48-40.12,24.49-61.41,34.37-27.57,12.79-55.75,24.2-84.52,34.12-19.44,6.71-39,13.04-58.93,18.01-15.8,3.94-31.82,7.05-47.83,9.99-9.65,1.77-19.45,2.92-29.24,3.63-12.5.9-25.07,1.12-37.33-2.31-2.34-.65-4.72-1.52-6.77-2.78-4.4-2.71-5.74-7.63-3.41-12.26.99-1.96,2.45-3.73,3.91-5.4,5.8-6.66,12.87-11.74,20.42-16.22,2.84-1.69,5.65-3.43,8.49-5.15-.62-2.46-1.09-4.35-1.6-6.41-12.13,4.92-22.89,11.7-33.67,18.45-9.87,6.19-19.6,12.6-27.79,21-2.33,2.39-4.58,4.95-6.37,7.76-4.4,6.91-2.67,11.98,5.09,14.55,3.99,1.32,8.23,2.32,12.41,2.55,16.57.9,33.2.82,49.6-1.71,18.09-2.79,36.15-6.04,54.01-10.03,20.48-4.57,40.8-9.91,61.05-15.43,14.86-4.05,29.65-8.49,44.21-13.53,27.89-9.66,55.37-20.35,82.17-32.79,30.46-14.13,60.73-28.59,88.37-47.83,7.32-5.1,14.21-10.91,20.77-16.96,3.36-3.09,5.95-7.23,8.14-11.3,2.06-3.81.89-6.86-2.69-9.21-1.65-1.08-3.57-1.89-5.48-2.41-7.61-2.07-15.4-2.9-23.25-2.34-8.25.59-16.51,1.23-24.68,2.42-10.16,1.48-20.24,3.53-30.35,5.41-.75.14-1.39.93-2.27,1.56,1.36,1.58,2.5,2.91,3.3,3.83ZM106.95,171.94c-7.94,4.12-15.14,9.28-21.19,15.94-1.03,1.14-1.77,2.56-2.56,3.9-1.4,2.38-.63,4.32,1.45,5.81,1.08.78,2.26,1.48,3.49,1.96,5.9,2.29,21.87,2.76,28.79.98-3.29-9.43-6.58-18.87-9.98-28.61ZM383.24,78.4c3.73,9.18,7.22,17.76,10.9,26.81,7.34-4.81,13.71-9.98,19.61-15.73.95-.92,1.69-2.1,2.36-3.25,2.06-3.55,1.33-5.79-2.42-7.45-1.01-.45-2.11-.71-3.19-.98-8.89-2.27-17.71-1.29-27.26.6Z"/>
  <path class="st0" d="M82.43,43.4c1.15,3.81,2.12,6.65,2.86,9.56,1.2,4.76,3.83,7.93,8.86,8.89,1.73.33,3.38,1.09,5.24,1.72-12.61,5.32-11.85,1.84-15.85,18.66-.13.55-.4,1.07-1.06,2.78-1.1-3.75-2.22-6.39-2.61-9.14-.79-5.62-3.89-8.79-9.26-10.13-1.72-.43-3.35-1.19-5.26-1.89,4.37-2.02,9.85-2.05,12.24-6.41,2.16-3.94,3.03-8.59,4.84-14.04Z"/>
  <path class="st0" d="M369.29,19.86c3.29-2.24,7.08-3.78,9.21-6.58,2.12-2.78,2.58-6.83,3.92-10.77q4.91,12.05,12.92,16.14c-2.92,2.04-6.6,3.57-8.64,6.32-2.14,2.88-2.72,6.92-4.19,11.06-2.36-7.34-3.25-15.77-13.22-16.16Z"/>
  <path class="st0" d="M435.31,164.25c11.54-1.38,12.85-9.44,14.62-18.79,1.05,3.63,1.85,5.76,2.28,7.96,1.05,5.35,3.81,8.95,9.43,9.93.63.11,1.2.53,1.47.66-2.86,1.9-6.54,3.3-8.55,5.96-2.17,2.87-2.78,6.92-4.4,11.37-.74-2.46-1.48-4.15-1.72-5.9-.78-5.56-3.88-8.85-9.29-10.09-.79-.18-1.56-.45-3.82-1.11Z"/>
  <path class="st0" d="M429,230.22c-5.94,1.67-9.1,5.49-10.02,12.51-1.63-3.48-2.28-6.13-3.88-7.94-1.68-1.91-4.27-3.02-6.78-4.69,5.61-.93,8.61-4.56,10.05-10.22,2.01,5.14,4.79,9.14,10.63,10.35Z"/>
  <path class="st0" d="M66.08,117.72c-6.06,1.64-8.04,6.07-9.79,11.59-2.59-4.78-3.54-10.28-11.53-10.02,5.73-3.39,10.33-5.62,11.03-11.65,1.87,5.04,4.04,9.33,10.29,10.08Z"/>
  <path class="st0" d="M256.33,16.67c25.48-3.3,69.66,16.18,91.17,42.72-2.18-1.02-3.32-1.3-4.13-1.98-4.26-3.62-8.3-7.51-12.67-10.99-18.2-14.51-38.82-23.65-61.81-27.4-4.12-.67-8.51.05-12.56-2.35Z"/>
  <path class="st0" d="M137.21,77.91c-2.93,8.36-5.84,15.93-8.21,23.66-2.47,8.08-4.78,16.29-4.88,24.82-.1,8.25-.33,16.58.57,24.75.89,8.06,3.12,15.97,5.06,25.4-13.77-18.35-8.49-83.85,7.46-98.63Z"/>
  <path class="st0" d="M273.07,28.3c13.83,1.53,25.47,6.29,36.1,14.28-.75.04-1.67.38-2.21.07-10.35-5.93-21.47-9.8-33.04-12.5-.12-.03-.17-.35-.85-1.85Z"/>
  <path class="st0" d="M363.25,176.1c.38,11.13-16.78,38.4-32.47,51.23-15.67,12.82-47.13,25.21-60.61,23.17,4.96-3.09,10.39-1.94,15.07-3.75,4.98-1.93,10.26-3.06,15.23-5.01,4.76-1.87,9.42-4.11,13.87-6.64,4.65-2.64,9.22-5.53,13.41-8.84,4.02-3.17,7.67-6.85,11.16-10.62,3.48-3.76,6.82-7.72,9.72-11.93,3.03-4.39,5.64-9.11,8.13-13.84,2.36-4.48,4.33-9.17,6.47-13.77Z"/>
</svg>