<?xml version="1.0" encoding="UTF-8"?>
<svg id="Layer_1" xmlns="http://www.w3.org/2000/svg" version="1.1" viewBox="0 0 501.12 387.51">
  <!-- Generator: Adobe Illustrator 30.5.0, SVG Export Plug-In . SVG Version: 2.1.4 Build 138)  -->
  <defs>
    <style>
      .st0 {
        fill: #e6e6e6;
      }
    </style>
  </defs>
  <path class="st0" d="M154.05,218.11c-2.09,3.09-4.83,2.1-7.12,2.21-9.38.48-18.49,2.22-27.59,4.58-18.64,4.83-29.57,17.02-35.03,34.96-2.9,9.54-4.4,19.26-5,29.18-.14,2.25.84,5.19-3.38,6.43-.53-1.62-1.36-3.21-1.53-4.87-1.05-10.11-2.03-20.2-4.84-30.06-5.07-17.81-15.92-29.77-33.87-35.13-9.27-2.77-18.6-4.97-28.34-5.13-2.57-.04-5.58.74-7.35-2.25,2.03-2.99,5.07-2.16,7.66-2.21,9.46-.19,18.48-2.48,27.48-5.07,16.05-4.62,26.74-15.16,32.29-30.57,2.58-7.16,3.75-14.87,5.15-22.41.95-5.11,1.08-10.36,1.84-15.52.15-1.03,1.5-1.89,2.3-2.83.8.95,2.29,1.9,2.29,2.85.07,9.7,1.31,19.25,3.7,28.62,4.29,16.82,12.99,30.48,29.42,37.68,9.87,4.33,20.51,6.16,31.25,7.1,2.47.22,4.98.13,7.42.52,1.11.18,2.09,1.2,3.24,1.92ZM117.97,217.83c-22.67-6.51-35.48-21.2-41.32-43.51-6.33,22.4-18.53,37.93-41.35,43.47,27.95,9.4,35.59,20.88,41.77,43.08,5.4-22.45,18.54-36.54,40.9-43.04Z"/>
  <path class="st0" d="M292.44,149.2c-3.65.54-7.3,1.14-10.96,1.61-10.66,1.38-21.08,3.46-30.94,8.06-10,4.66-16.79,12.21-21.44,21.96-5.53,11.59-7.5,24.06-9,36.64-.23,1.9-.49,3.8-.87,5.67-.09.43-.74.74-1.62,1.57-1.57-3.32-1.72-6.7-2.32-10.02-1.6-8.9-2.69-18-5.39-26.58-5.19-16.51-15.81-28.29-33.19-32.48-8.78-2.12-17.79-3.31-26.69-4.92-2.31-.42-5.08.65-7.21-2.87,4.3-.64,8.2-1.45,12.15-1.78,9.69-.81,18.96-3.22,27.86-7.01,14.38-6.12,23.13-17.12,27.59-31.95,2.87-9.53,4.94-19.12,5.05-29.12.02-2.04.86-4.08,1.7-7.8,1.58,2.81,2.71,4.01,2.92,5.35,1.19,7.57,1.87,15.24,3.27,22.77,4.18,22.52,16.51,38.13,39.22,44.05,8.73,2.27,17.79,3.31,26.7,4.92,1.04.19,2.07.48,3.1.72.03.4.05.8.08,1.2ZM217.48,105.92c-5.05,21.53-18.25,35.12-39.51,42.72,22.24,6.48,35.16,19.88,39.78,43.15,6.2-23.04,19.06-37.21,41.06-43.1-20.9-8.4-30.04-13.48-41.34-42.77Z"/>
  <path class="st0" d="M338.67,135.57c-2.06-7.99-3.89-14.29-5.31-20.68-4.55-20.54-18.45-28.77-37.36-31.91-3.68-.61-7.37-1.17-11.11-3.21,2.59-.58,5.18-1.16,7.77-1.74,4.81-1.06,9.67-1.95,14.43-3.2,13.49-3.54,21.61-12.64,25.61-25.6,1.61-5.22,2.43-10.69,3.68-16.03.59-2.53,1.33-5.02,2.05-7.71,3.25,1.92,2.25,4.68,2.64,7,1.46,8.67,2.88,17.34,7.32,25.16,5.04,8.87,12.5,14.57,22.36,16.94,6.12,1.47,12.35,2.44,18.52,3.72,1.48.31,2.91.93,6.14,1.99-7.95,1.61-13.96,2.97-20.03,4.03-18.32,3.2-28.03,15-32.35,32.18-1.45,5.78-2.66,11.63-4.35,19.06ZM338.86,51.22c-5.47,13.9-13.57,24.08-28.54,29.27,15.91,4.55,23.59,15.11,28.18,29.03.8-1.73,1.54-2.9,1.9-4.19,3.29-11.48,11.5-18.44,21.65-23.62,1.23-.63,2.43-1.32,4.23-2.3-14.6-4.64-22.43-14.75-27.43-28.2Z"/>
  <path class="st0" d="M344.88,237.81c-6.42,1.42-12.86,2.74-19.25,4.27-12.94,3.1-21.24,11.12-24.76,23.96-1.81,6.61-3.47,13.26-5.63,21.6-1.49-5.84-2.52-10.25-3.74-14.61-1.18-4.22-2.18-8.55-3.92-12.55-3.83-8.8-10.25-14.91-19.83-17.22-7.44-1.79-14.88-3.56-23.49-5.62,2.13-.9,3.33-1.61,4.63-1.93,6.92-1.72,13.9-3.2,20.78-5.05,8-2.14,13.53-7.5,16.71-14.89,2.7-6.27,4.58-12.9,6.74-19.41.76-2.28,1.26-4.64,2.34-8.72,1.12,4.07,1.76,6.36,2.37,8.65,1.07,3.98,2.12,7.95,3.18,11.93,4,15.05,14.28,22.91,29.17,25.54,5.01.89,10.01,1.89,15.01,2.84-.11.4-.21.8-.32,1.2ZM295.32,263.36c4.25-12.76,12.14-21.1,24.12-25.39-5.17-3.7-10.64-6.57-14.67-10.8-3.94-4.13-6.42-9.66-10.17-15.58-4.29,12.8-12.42,21.17-25.52,26.11,14.79,3.46,21.31,13.32,26.25,25.67Z"/>
  <path class="st0" d="M453.29,226.94c.67,5.06-4.24,6.96-4.46,11.54,5.35.93,10.66,1.85,17.28,3-5.85,3.86-11.89,2.53-17.67,4.83,1.95,3.39,3.74,6.52,5.9,10.28-5.04.44-6.98-4.26-11.22-4.59-5.03,3.95-.49,11.13-5.2,16.58-.83-3.19-1.64-5.57-2.04-8.02-.43-2.65-.48-5.35-.7-8.05-4.8.44-7.62,5.58-13.17,3.46,2.65-3.22,5-6.08,7.77-9.45-5.53-2.34-11.28-1.24-17.62-4.85,6.14-1.52,10.68-2.65,15.66-3.88-1.95-3.43-3.66-6.44-5.69-10,5.32-1.11,7.5,4.29,12.26,4.04,2.48-4.63,1.77-10.3,3.31-15.48,2.83.17,2.62,2.29,2.79,4.07.36,3.77-.19,7.74,2.58,11.55,3.31-1.63,6.53-3.22,10.21-5.02Z"/>
  <path class="st0" d="M473.1,130.62c-4.48,1.04-8.93,2.33-13.46,3.06-7.73,1.24-11.26,6.16-12.49,13.32-.74,4.31-1.39,8.64-2.29,14.31-1.02-2.5-1.85-3.93-2.18-5.48-.41-1.87-.36-3.83-.59-5.75-1.46-12.29-4.69-15.56-16.83-17.31-3.14-.45-6.24-1.2-9.2-2.94,4.6-.69,9.21-1.4,13.81-2.06,7.18-1.04,9.44-2.96,11.06-10.07.73-3.2.96-6.51,1.47-9.76.32-2.05.74-4.08,2.27-6.09.77,5.19,1.35,10.42,2.36,15.56,1.51,7.7,2.98,9.08,10.62,10.36,5.09.85,10.24,1.36,15.37,2.02.03.27.05.54.08.81Z"/>
  <path class="st0" d="M278.64,328.28c-4.48,1.04-8.93,2.33-13.46,3.06-7.73,1.24-11.26,6.16-12.49,13.32-.74,4.31-1.39,8.64-2.29,14.31-1.02-2.5-1.85-3.93-2.18-5.48-.41-1.87-.36-3.83-.59-5.75-1.46-12.29-4.69-15.56-16.83-17.31-3.14-.45-6.24-1.2-9.2-2.94,4.6-.69,9.21-1.4,13.81-2.06,7.18-1.04,9.44-2.96,11.06-10.07.73-3.2.96-6.51,1.47-9.76.32-2.05.74-4.08,2.27-6.09.77,5.19,1.35,10.42,2.36,15.56,1.51,7.7,2.98,9.08,10.62,10.36,5.09.85,10.24,1.36,15.37,2.02.03.27.05.54.08.81Z"/>
  <path class="st0" d="M381.52,295.23c-4.48,1.04-8.93,2.33-13.46,3.06-7.73,1.24-11.26,6.16-12.49,13.32-.74,4.31-1.39,8.64-2.29,14.31-1.02-2.5-1.85-3.93-2.18-5.48-.41-1.87-.36-3.83-.59-5.75-1.46-12.29-4.69-15.56-16.83-17.31-3.14-.45-6.24-1.2-9.2-2.94,4.6-.69,9.21-1.4,13.81-2.06,7.18-1.04,9.44-2.96,11.06-10.07.73-3.2.96-6.51,1.47-9.76.32-2.05.74-4.08,2.27-6.09.77,5.19,1.35,10.42,2.36,15.56,1.51,7.7,2.98,9.08,10.62,10.36,5.09.85,10.24,1.36,15.37,2.02.03.27.05.54.08.81Z"/>
  <path class="st0" d="M406.67,380.67c-1.96-6.43-2.77-11.56-5.04-15.92-2.79-5.35-9.35-3.42-14.04-5.65.15-.18.34-.63.57-.65,13.73-1.32,14.38-4.91,16.32-16.29.27-1.57.39-3.16,1.45-4.87.59,2.02,1.39,4.01,1.73,6.07,1.97,11.92,3.62,13.58,16.87,15.32-2.93.75-4.64,1.28-6.39,1.62-6.67,1.3-9.68,5.6-10.21,12.1-.19,2.28-.67,4.53-1.25,8.28Z"/>
  <path class="st0" d="M109.82,347.6c-1.96-6.43-2.77-11.56-5.04-15.92-2.79-5.35-9.35-3.42-14.04-5.65.15-.18.34-.63.57-.65,13.73-1.32,14.38-4.91,16.32-16.29.27-1.57.39-3.16,1.45-4.87.59,2.02,1.39,4.01,1.73,6.07,1.97,11.92,3.62,13.58,16.87,15.32-2.93.75-4.64,1.28-6.39,1.62-6.67,1.3-9.68,5.6-10.21,12.1-.19,2.28-.67,4.53-1.25,8.28Z"/>
  <path class="st0" d="M178.95,251.1q3.36,16.97,20.26,21.48c-3.4.81-6.83,1.5-10.19,2.45-4.09,1.16-6.43,3.89-7.05,8.21-.46,3.22-1.3,6.38-2.27,10.93-.95-5.23-1.75-8.98-2.27-12.77-.63-4.58-3.54-6.64-7.7-7.3-3.24-.52-6.52-.76-11.06-1.27,4.46-1.08,7.73-1.79,10.95-2.66,4.46-1.22,6.86-4.26,7.55-8.79.52-3.44,1.18-6.86,1.78-10.29Z"/>
  <path class="st0" d="M124.25,61.5c19.19-4.62,16.68-7.2,18.66-21.19,1.06,3.67,1.77,6.68,2.8,9.58,2.06,5.77,5.22,10.26,12.27,10.34,1.68.02,3.35,1.13,5.82,2.03-5.39,1.3-11.06-.57-13.92,4.04-2.35,3.78-3.33,8.4-5.02,12.93-3.08-14.65.04-13.83-20.62-17.72Z"/>
  <path class="st0" d="M493.55,185.63c-3.93-.18-6.8-3.7-6.52-8,.25-3.91,3.24-6.87,6.87-6.83,3.97.05,7.35,3.57,7.21,7.54-.13,3.88-3.85,7.47-7.57,7.3Z"/>
  <path class="st0" d="M368.6,181.51c-3.93-.18-6.8-3.7-6.52-8,.25-3.91,3.24-6.87,6.87-6.83,3.97.05,7.35,3.57,7.21,7.54-.13,3.88-3.85,7.47-7.57,7.3Z"/>
  <path class="st0" d="M246.34,14.84c-3.93-.18-6.8-3.7-6.52-8C240.07,2.92,243.06-.04,246.69,0c3.97.05,7.35,3.57,7.21,7.54-.13,3.88-3.85,7.47-7.57,7.3Z"/>
  <path class="st0" d="M181.79,380.09c.1-4.45,2.97-7.49,6.95-7.39,3.87.1,6.77,3.55,6.55,7.79-.2,3.91-3.73,7.19-7.54,7.01-3.44-.16-6.04-3.41-5.95-7.42Z"/>
  <path class="st0" d="M452.6,326.45c.1-4.45,2.97-7.49,6.95-7.39,3.87.1,6.77,3.55,6.55,7.79-.2,3.91-3.73,7.19-7.54,7.01-3.44-.16-6.04-3.41-5.95-7.42Z"/>
</svg>