<?xml version="1.0" encoding="UTF-8"?>
<svg id="Layer_1" xmlns="http://www.w3.org/2000/svg" version="1.1" viewBox="0 0 487.4 460.25">
  <!-- Generator: Adobe Illustrator 30.5.0, SVG Export Plug-In . SVG Version: 2.1.4 Build 138)  -->
  <defs>
    <style>
      .st0 {
        fill: #e6e6e6;
      }
    </style>
  </defs>
  <path class="st0" d="M243.79,306.84c-36.06-.79-66.85-24.03-74.06-60.23-6.35-31.93,9.68-66.66,41.85-80.95,23.88-10.61,47.75-9.8,70.31,3.57,20.5,12.14,33.49,30.08,36.05,54.25,3.17,29.91-7.94,53.49-32.67,70.74-12.52,8.73-26.56,12.04-41.49,12.62ZM242.76,301.72c6.66.13,18.01-1.87,24.41-4.21,28.67-10.49,49.42-38.71,45.75-72.49-1.58-14.57-7.22-27.2-17-37.72-15.65-16.83-35.05-24.77-58.32-22.9-8.2.66-15.97,2.57-23.39,5.83-26.82,11.79-44.45,41.81-40.01,71.72,1.81,12.16,6.25,23.16,13.79,32.49,13.96,17.27,32.29,26.64,54.76,27.28Z"/>
  <path class="st0" d="M409.42,68.69c-35.35,36.5-69.58,71.84-104.13,107.51-1.15-1-2.15-1.86-3.49-3.02,3.8-3.98,7.27-7.67,10.81-11.29,29.82-30.47,59.66-60.92,89.5-91.37.89-.91,1.7-2.1,2.8-2.55.84-.34,2.08.28,4.5.72Z"/>
  <path class="st0" d="M49.06,150.96c9.03,2.18,109.85,45.16,116.89,49.74-1.27,4.02-1.35,4.22-4.8,2.78-8.63-3.59-17.19-7.37-25.76-11.11-18.5-8.07-37-16.14-55.49-24.24-9.54-4.18-19.06-8.39-28.57-12.64-1.69-.75-3.64-1.54-2.27-4.54Z"/>
  <path class="st0" d="M438.64,150.56c-.8,1.18-1.1,2.08-1.71,2.43-1.84,1.05-3.78,1.95-5.73,2.81-23.17,10.17-46.35,20.31-69.52,30.47-11.48,5.04-22.95,10.13-34.43,15.18-1.36.6-2.73,1.33-4.16,1.53-.8.11-2.36-.62-2.47-1.18-.2-1.03.11-2.53.8-3.26.81-.85,2.26-1.08,3.43-1.59,23.99-10.41,47.98-20.84,71.98-31.22,11.12-4.81,22.27-9.55,33.43-14.29,1.76-.75,3.55-1.48,5.4-1.89.75-.17,1.69.54,2.98,1.02Z"/>
  <path class="st0" d="M436,311.31c-1.1.73-1.98,1.78-2.64,1.65-1.85-.35-3.65-1.1-5.4-1.85-21.68-9.31-43.34-18.64-65.01-27.97-12.3-5.29-24.6-10.56-36.89-15.86-1.56-.67-3.19-1.29-4.53-2.29-.61-.46-1.02-1.94-.74-2.65.29-.76,1.65-1.77,2.3-1.61,2.46.57,4.88,1.43,7.2,2.44,11.69,5.1,23.33,10.29,35,15.45,20.79,9.2,41.59,18.39,62.37,27.6,2.14.95,4.26,1.94,6.32,3.04.67.36,1.13,1.12,2.02,2.06Z"/>
  <path class="st0" d="M76.04,70.74c2.19-3.14,3.78-2.35,5.32-.83,3.18,3.14,6.34,6.3,9.49,9.46,20.28,20.33,40.59,40.64,60.82,61.02,4.76,4.8,9.28,9.83,14.28,15.14-1.46.94-2.46,1.59-3.93,2.54-28.66-29.11-57.28-58.17-85.99-87.33Z"/>
  <path class="st0" d="M49.13,311.65c4.59-2.17,7.6-3.69,10.68-5.04,25.5-11.15,51.02-22.26,76.53-33.39,7.4-3.23,14.78-6.52,22.18-9.74,1.36-.59,2.77-1.1,4.2-1.49,1.5-.4,3.03-.42,3.79,1.33.77,1.8-.32,2.82-1.76,3.52-1.72.83-3.49,1.57-5.25,2.31-23.11,9.71-46.22,19.4-69.33,29.12-10.77,4.53-21.52,9.11-32.3,13.63-1.56.66-3.18,1.31-4.83,1.59-.73.12-1.62-.71-3.91-1.84Z"/>
  <path class="st0" d="M172.57,40.81c2.89,8.19,5.79,16.38,8.68,24.57,9.83,27.85,19.66,55.71,29.49,83.56.64,1.8,1.29,3.6,1.85,5.43.78,2.55-.56,3.47-3.53,3.67-.81-1.96-1.8-4.02-2.54-6.16-7.68-22.08-15.35-44.17-22.97-66.28-4.22-12.26-8.35-24.55-12.49-36.84-.61-1.81-1.31-3.64-1.5-5.52-.09-.86.94-1.84,1.46-2.76.52.11,1.03.21,1.55.32Z"/>
  <path class="st0" d="M316.5,422.05c-3.55.68-4.24-.95-4.81-2.49-1.33-3.59-2.54-7.22-3.83-10.83-11.43-32.05-22.86-64.1-34.28-96.15-1.2-3.38-1.14-3.4,3.59-5.38,13.46,37.96,26.25,76.11,39.33,114.85Z"/>
  <path class="st0" d="M276.39,157.76c-3.12-.77-3.9-2.27-3.18-4.49,1.18-3.63,2.41-7.25,3.7-10.85,11.42-32,22.84-64,34.29-96,.83-2.33,1.83-4.61,3.21-8.08,1.18,2.02,2.25,3.01,2.13,3.81-.36,2.28-1.11,4.53-1.87,6.73-6.18,17.86-12.38,35.71-18.59,53.55-5.8,16.64-11.61,33.27-17.44,49.9-.63,1.78-1.44,3.5-2.24,5.43Z"/>
  <path class="st0" d="M48,234.97c1.82-1.79,2.52-3.08,3.44-3.26,2.06-.42,4.24-.36,6.36-.36,31.77-.07,63.55-.12,95.32-.16,1.49,0,3.04-.13,4.45.23.81.2,1.95,1.28,1.93,1.95-.02.78-.99,1.94-1.79,2.21-1.37.47-2.93.49-4.41.49-31.35-.02-62.7-.05-94.04-.15-3.33-.01-6.65-.54-11.28-.95Z"/>
  <path class="st0" d="M82.22,398.15c-.33-1.81-.97-3.07-.6-3.82.63-1.28,1.87-2.27,2.91-3.34,16.41-16.98,32.85-33.94,49.24-50.93,10.04-10.41,20.03-20.88,30.06-31.3,1.46-1.52,3.06-2.91,4.57-4.35,2.41,1.07,3.21,2.43,1.53,4.49-.67.82-1.45,1.55-2.2,2.31-18.67,19.22-37.33,38.46-56.04,57.65-8.32,8.53-16.74,16.96-25.14,25.41-1.15,1.16-2.44,2.19-4.34,3.88Z"/>
  <path class="st0" d="M172.65,423.15c-.61-2.23-1.32-3.36-1.1-4.27.85-3.51,1.87-6.99,3.06-10.4,10.42-29.92,20.9-59.83,31.36-89.74,1.32-3.77,2.64-7.54,4.1-11.72,1.58.52,2.69.89,3.48,1.15,1.11,1.89-36.37,107.16-40.9,114.98Z"/>
  <path class="st0" d="M404.14,396.14c-1.72.54-2.8,1.27-3.43.99-1.11-.5-2-1.56-2.87-2.49-14.58-15.54-29.14-31.1-43.71-46.66-8.74-9.33-17.48-18.66-26.22-27.99-.58-.62-1.7-1.21-1.71-1.83-.1-5.04-3.85-6.33-7.52-8.05-1.63-.77-2.94-2.45-4.1-3.94-1.17-1.5-1.09-3.15.94-4.65,2.58.39,4.04,2.65,5.69,4.44,11.82,12.84,23.51,25.79,35.34,38.61,14.59,15.81,29.29,31.53,43.93,47.29,1.01,1.08,1.93,2.25,3.65,4.26Z"/>
  <path class="st0" d="M245.68,150.04c-2.35,1.12-3.63.69-4.03-1.17-.31-1.44-.33-2.96-.32-4.44.07-22.15.15-44.3.27-66.46.04-7.23.15-14.46.32-21.69.03-1.2.51-2.38.97-4.43,1.3,1.31,2.54,1.98,2.73,2.88.4,1.84.3,3.81.3,5.72.02,27.69.03,55.39.02,83.08,0,2.28-.17,4.55-.25,6.5Z"/>
  <path class="st0" d="M242.25,408.6c-.14-3.39-.32-5.88-.33-8.36-.05-12.55.02-25.1-.08-37.65-.11-14.05-.37-28.09-.55-42.14-.02-1.49-.25-3.05.13-4.45.28-1.01,1.39-1.8,2.13-2.68.82.8,1.92,1.47,2.38,2.44.41.88.13,2.09.13,3.15-.09,27.68-.16,55.36-.3,83.04-.01,2.13.72,4.72-3.52,6.63Z"/>
  <path class="st0" d="M99.33,136.46c1.03-.05,2.29-.49,3.05-.06,2.58,1.46,5.01,3.21,7.46,4.89,19.66,13.45,39.31,26.9,58.96,40.36,1.9,1.31,3.73,2.73,5.89,4.32-1.08,1.48-1.91,2.61-2.93,4-8.33-5.91-16.44-11.63-24.52-17.38-8.14-5.8-16.31-11.56-24.38-17.45-7.98-5.82-16.5-10.95-24.03-17.35.17-.44.34-.88.51-1.32Z"/>
  <path class="st0" d="M324.07,213.91c30.05-5.84,59.4-11.56,88.78-17.21,1.1-.21,2.32.24,5.09.57-2.38,1.19-3.32,1.91-4.36,2.14-17,3.82-34.02,7.57-51.04,11.34-10.79,2.39-21.58,4.79-32.38,7.16-3.72.81-3.73.77-6.09-4Z"/>
  <path class="st0" d="M101.27,328.32c-2.38-1.96-1.5-3.11-.14-4.05,2.79-1.94,5.67-3.77,8.47-5.69,18.94-12.98,37.87-25.98,56.82-38.95,1.74-1.19,3.61-2.22,5.36-3.28,3.25,2.36,3.45,2.87,1.31,4.43-2.74,2.01-5.64,3.8-8.47,5.69-19.63,13.09-39.27,26.19-58.91,39.27-1.4.93-2.9,1.69-4.44,2.58Z"/>
  <path class="st0" d="M314.73,188.44c-1.08-1.52-1.66-2.34-2.24-3.15.53-.77.77-1.43,1.24-1.76,21.74-15,43.49-29.99,65.28-44.94,2.59-1.78,5.35-3.3,8.86-5.46-.09,1.92.23,3.14-.23,3.61-1.32,1.36-2.91,2.48-4.47,3.59-20.71,14.63-41.42,29.24-62.15,43.85-1.89,1.33-3.83,2.59-6.29,4.25Z"/>
  <path class="st0" d="M162.47,249.69c-30.94,6.24-60.89,12.13-91.07,16.77-.34.05-.82-.84-1.57-1.66,1.31-.59,2.34-1.29,3.47-1.51,26.68-5.42,53.37-10.81,80.07-16.16,2.07-.41,4.23-.7,6.31-.57.75.05,1.4,1.51,2.79,3.13Z"/>
  <path class="st0" d="M387.78,325.03c-1.3,2.61-2.59,2.31-4.03,1.38-3.56-2.32-7.15-4.6-10.69-6.95-19.3-12.8-38.58-25.62-57.86-38.44-.7-.47-1.53-.92-1.93-1.6-.36-.63-.58-1.88-.22-2.26.61-.66,1.81-1.3,2.59-1.14,1.17.24,2.25,1.12,3.29,1.84,9.45,6.5,18.83,13.1,28.32,19.54,12.31,8.34,24.71,16.55,37.05,24.84,1.2.81,2.27,1.82,3.48,2.8Z"/>
  <path class="st0" d="M71.27,199.23c2.95-2.17,5.12-1.39,7.1-.99,26.42,5.41,52.83,10.91,79.23,16.41,1.01.21,2.03.59,2.89,1.14.42.26.8,1.22.63,1.63-.29.71-.92,1.54-1.59,1.75-.71.23-1.63-.16-2.45-.34-10.38-2.23-20.77-4.4-31.13-6.72-17-3.8-33.97-7.69-50.95-11.57-.95-.22-1.85-.65-3.72-1.32Z"/>
  <path class="st0" d="M334.72,375.69c-.52-.2-1.34-.25-1.6-.66-15.34-23.94-30.07-48.25-44.83-72.86,1.48-.92,2.5-1.56,4.13-2.57,1.77,2.9,3.45,5.51,4.99,8.21,12.74,22.26,25.46,44.54,38.14,66.84.07.13-.48.61-.83,1.05Z"/>
  <path class="st0" d="M414.77,264.6c-1.63,0-3.31.27-4.88-.04-27.49-5.34-54.97-10.75-82.44-16.19-.73-.14-1.34-.84-1.94-1.23.3-3.04,2.12-3.11,4.18-2.67,5.18,1.12,10.35,2.31,15.54,3.41,22.22,4.69,44.44,9.34,66.66,14.04,1.11.23,2.15.78,3.22,1.18-.11.5-.23,1-.34,1.51Z"/>
  <path class="st0" d="M195.21,299.07c1.51.89,2.55,1.5,3.56,2.09-2.06,5.18-43.38,70.55-46.31,73.33-2-1.01-1.12-2.35-.37-3.62,5.42-9.16,10.84-18.33,16.29-27.47,7.52-12.61,15.06-25.22,22.62-37.81,1.29-2.15,2.73-4.22,4.22-6.52Z"/>
  <path class="st0" d="M291.22,166.24c-1.37-1.17-2.13-1.83-2.83-2.43,4.12-8.82,41.83-69.43,45.23-72.73,2.52,1.24.96,2.82.2,4.12-6.98,11.95-13.99,23.88-21.04,35.8-6.4,10.81-12.84,21.59-19.29,32.36-.53.88-1.28,1.63-2.27,2.88Z"/>
  <path class="st0" d="M272.55,67.91c2.62,1,1.71,3.16,1.43,4.89-1.26,7.77-2.75,15.5-4,23.27-2.43,15.12-4.74,30.26-7.12,45.38-.46,2.94-.89,5.89-1.5,8.8-.4,1.93-1.71,2.17-3.32,1.3-.97-7.29,11.16-77.24,14.5-83.64Z"/>
  <path class="st0" d="M151.43,92.24c.64-.13.83-.21,1.02-.2.2,0,.46.04.59.16.47.42.93.87,1.32,1.36.53.66,1.04,1.35,1.49,2.07,2.03,3.24,4.05,6.49,6.05,9.75,11.88,19.36,23.76,38.73,35.6,58.03-2.57,3.1-3.07,3.25-4.67,1.28-.67-.82-1.18-1.77-1.72-2.68-12.54-21.22-25.1-42.44-37.59-63.7-1.08-1.83-2.93-3.63-2.1-6.07Z"/>
  <path class="st0" d="M212.66,396.05c-.13-1.32-.55-2.68-.34-3.95,1.87-11.55,3.86-23.08,5.81-34.61,2.09-12.38,4.18-24.76,6.29-37.13.36-2.1.69-4.22,1.37-6.23.25-.74,1.6-1.72,2.19-1.57.73.19,1.58,1.38,1.68,2.23.18,1.45-.06,2.98-.34,4.44-4.59,24.24-9.21,48.47-13.85,72.69-.27,1.39-.8,2.74-1.22,4.11-.53,0-1.06.01-1.58.02Z"/>
  <path class="st0" d="M273.87,396.15c-3.8-3.79-3.52-8.39-4.35-12.64-3.12-16.05-5.96-32.16-8.83-48.25-1.04-5.85-1.89-11.73-2.75-17.61-.18-1.24-.3-2.63.08-3.77.26-.77,1.44-1.7,2.21-1.71.74,0,1.97.99,2.13,1.73.66,3.11,1.02,6.28,1.46,9.44,1.08,7.78,2.07,15.58,3.24,23.35,2.28,15.11,4.69,30.21,6.98,45.32.2,1.34-.11,2.76-.19,4.14Z"/>
  <path class="st0" d="M213.83,68.58c.54,1.74,1.29,3.45,1.6,5.24,4.21,23.67,8.39,47.34,12.49,71.02.36,2.07.3,4.24.17,6.34-.04.62-.99,1.19-1.59,1.86-.66-.63-1.44-1.01-1.52-1.5-4.48-27.06-8.92-54.13-13.3-81.21-.08-.46.49-1.03.75-1.55.46-.07.93-.13,1.39-.2Z"/>
  <path class="st0" d="M378.13,230.93c4.92-1.5,41.17-2.3,55.55-1.3,1.14.08,2.25.61,3.91,1.08-.74,1.11-1.03,2.09-1.6,2.3-1.16.41-2.46.55-3.71.55-16.13.04-32.26.04-48.39.03-1.26,0-2.61,0-3.75-.43-.78-.3-1.26-1.36-2-2.23Z"/>
  <path class="st0" d="M349.56,233.68c-5.74,0-11.49.01-17.23,0-1.27,0-2.64.14-3.78-.27-.75-.27-1.46-1.37-1.63-2.21-.1-.53.71-1.63,1.33-1.83,1.18-.38,2.51-.4,3.77-.38,12.33.18,24.66.4,36.99.62.64.01,1.41-.14,1.88.16.78.5,1.36,1.31,2.02,1.98-.76.59-1.51,1.68-2.28,1.7-7.02.13-14.04.08-21.06.08,0,.06,0,.11,0,.17Z"/>
  <path class="st0" d="M243.17,0c1.14,1.1,2.17,1.63,2.17,2.18.15,14.19.22,28.39.18,42.58,0,.79-.97,1.58-1.88,2.96-.73-1.2-1.45-1.83-1.45-2.46-.07-14.21-.08-28.42-.05-42.63,0-.58.43-1.15,1.03-2.63Z"/>
  <path class="st0" d="M44.1,234.42c-6.07,1.31-38.23,1.27-44.1-.08.86-1.03,1.38-2.2,2.25-2.57,1.11-.46,2.5-.35,3.77-.36,11.06-.03,22.12-.05,33.18-.02,1.97,0,4.39-.54,4.91,3.02Z"/>
  <path class="st0" d="M487.37,232.52c-1.79.31-3.58.87-5.38.89-11.05.11-22.11.1-33.16.11-2.05,0-4.27.25-5.18-2.4,3.98-1.67,22.37-2.32,39.85-1.41,1.31.07,2.6.65,3.9.99,0,.61-.02,1.21-.03,1.82Z"/>
  <path class="st0" d="M244.15,460.25c-2.64-6.08-2.62-41.48-1.09-46.93,2.75.27,2.57,2.54,2.61,4.26.15,5.94.19,11.88.09,17.82-.12,6.99-.39,13.99-.7,20.98-.06,1.3-.6,2.58-.91,3.88Z"/>
  <path class="st0" d="M185.57,174.92c-1.31,1.23-2.19,2.06-3.27,3.07-1.69-1.3-2.92-2.07-3.92-3.07-3.45-3.46-6.86-6.95-10.18-10.54-1.78-1.93-1.68-2.03.61-5.8,6.18,4.52,10.78,10.46,16.76,16.33Z"/>
  <path class="st0" d="M175.04,303.33c-1.22-1.09-1.96-1.76-3.18-2.85,3.63-4.09,7.09-7.99,10.34-11.65.99.15,1.55.07,1.77.31.7.74,1.28,1.6,2.28,2.9-3.65,3.67-7.18,7.23-11.22,11.3Z"/>
  <path class="st0" d="M301.28,291.79c1-1.1,1.84-2.02,3.09-3.38,2.97,3.12,5.52,5.81,8.35,8.79-1.25,1.07-2.28,1.94-3.59,3.06-2.58-2.79-4.98-5.36-7.85-8.46Z"/>
</svg>